<?xml version="1.0" encoding="UTF-8" standalone="no"?><!DOCTYPE svg PUBLIC "-//W3C//DTD SVG 1.1//EN" "http://www.w3.org/Graphics/SVG/1.1/DTD/svg11.dtd"><svg width="100%" height="100%" viewBox="0 0 1024 2048" version="1.1" xmlns="http://www.w3.org/2000/svg" xmlns:xlink="http://www.w3.org/1999/xlink" xml:space="preserve" xmlns:serif="http://www.serif.com/" style="fill-rule:evenodd;clip-rule:evenodd;stroke-linejoin:round;stroke-miterlimit:2;"><g opacity="0.1"><path d="M445.218,-21.621c1.648,12.446 1.648,12.446 7.543,22.975c5.896,10.529 5.896,10.529 31.241,-12.456c25.344,-22.974 25.344,-22.974 -7.533,-22.974c-32.888,-0 -32.888,-0 -31.251,12.455" style="fill-rule:nonzero;"/><path d="M709.886,0.89c34.245,34.281 34.245,34.281 77.743,27.301c43.498,-6.979 43.498,-6.979 57.217,-34.28c13.709,-27.302 13.709,-27.302 -77.754,-27.302c-91.452,0 -91.452,0 -57.206,34.281" style="fill-rule:nonzero;"/><path d="M162.003,20.668c17.812,52.817 17.812,52.817 31.697,54.643c13.884,1.815 13.884,1.815 27.997,-24.962c14.112,-26.767 14.112,-26.767 17.801,-54.643c3.678,-27.866 3.678,-27.866 -45.809,-27.866c-49.497,-0 -49.497,-0 -31.686,52.828" style="fill-rule:nonzero;"/><path d="M376.935,-7.905c3.295,11.407 3.295,11.407 23.21,35.643c19.925,24.245 19.925,24.245 34.629,20.039c14.713,-4.205 14.713,-4.205 17.158,-7.695c2.456,-3.489 2.456,-3.489 3.617,-14.997c1.16,-11.507 1.16,-11.507 -4.736,-22.037c-5.906,-10.529 -5.906,-10.529 -41.529,-16.449c-35.634,-5.92 -35.634,-5.92 -32.349,5.496" style="fill-rule:nonzero;"/><path d="M108.869,21.283c50.668,53.493 50.668,53.493 59.092,52.818c8.435,-0.666 8.435,-0.666 -9.377,-53.494c-17.812,-52.818 -17.812,-52.818 -59.093,-52.818c-41.291,0 -41.291,0 9.378,53.494" style="fill-rule:nonzero;"/><path d="M500.446,32.79c41.954,-3.045 41.954,-3.045 52.668,-34.492c10.714,-31.436 10.714,-31.436 -15.46,-31.436c-26.163,-0 -26.163,-0 -51.507,22.984c-25.345,22.975 -25.345,22.975 -26.505,34.483c-1.161,11.517 -1.161,11.517 40.804,8.461" style="fill-rule:nonzero;"/><path d="M281.09,30.138c41.125,7.735 41.125,7.735 45.57,-27.866c4.445,-35.612 4.445,-35.612 -37.447,-35.612c-41.882,-0 -41.882,-0 -45.56,27.876c-3.689,27.866 -3.689,27.866 37.437,35.602" style="fill-rule:nonzero;"/><path d="M329.592,41.837c4.114,3.883 4.114,3.883 25.49,-17.66c21.376,-21.552 21.376,-21.552 18.092,-32.959c-3.295,-11.417 -3.295,-11.417 -7.222,-17.952c-3.928,-6.525 -3.928,-6.525 -17.76,-6.525c-13.833,-0 -13.833,-0 -18.278,35.601c-4.445,35.612 -4.445,35.612 -0.322,39.495" style="fill-rule:nonzero;"/><path d="M549.228,38.237c2.466,6.979 2.466,6.979 30.184,22.067c27.707,15.087 27.707,15.087 36.98,12.738c9.274,-2.34 9.274,-2.34 14.248,-53.504c4.963,-51.153 4.963,-51.153 -28.754,-51.153c-33.706,-0 -33.706,-0 -44.42,31.436c-10.714,31.447 -10.714,31.447 -8.238,38.416" style="fill-rule:nonzero;"/><path d="M344.482,72.961c9.75,24.104 9.75,24.104 18.143,28.764c8.383,4.659 8.383,4.659 31.552,-21.412c23.158,-26.081 23.158,-26.081 3.232,-50.326c-19.915,-24.236 -19.915,-24.236 -41.291,-2.683c-21.376,21.543 -21.376,21.543 -11.636,45.657" style="fill-rule:nonzero;"/><path d="M665.248,84.156c33.354,14.664 33.354,14.664 53.58,-16.389c20.236,-31.053 20.236,-31.053 -14.009,-65.334c-34.245,-34.28 -34.245,-34.28 -49.695,-34.28c-15.439,-0 -15.439,-0 -19.335,50.669c-3.885,50.669 -3.885,50.669 29.459,65.334" style="fill-rule:nonzero;"/><path d="M28.11,66.355c48.482,50.811 48.482,50.811 87.836,29.813c39.353,-20.998 39.353,-20.998 -11.315,-74.492c-50.669,-53.493 -50.669,-53.493 -87.836,-53.493c-37.157,-0 -37.157,-0 -37.157,23.681c0,23.68 0,23.68 48.472,74.491" style="fill-rule:nonzero;"/><path d="M852.887,74.615c13.998,50.831 13.998,50.831 46.907,50.397c32.898,-0.444 32.898,-0.444 47.073,-3.711c14.164,-3.278 14.164,-3.278 49.549,-57.548c35.385,-54.27 35.385,-54.27 35.385,-74.431c0,-20.151 0,-20.151 -82.738,-20.151c-82.737,0 -82.737,0 -96.456,27.302c-13.709,27.301 -13.709,27.301 0.28,78.142" style="fill-rule:nonzero;"/><path d="M218.36,90.136c6.891,10.832 6.891,10.832 69.102,8.956c62.201,-1.876 62.201,-1.876 52.461,-25.98c-9.75,-24.104 -9.75,-24.104 -13.864,-27.997c-4.113,-3.883 -4.113,-3.883 -45.239,-11.619c-41.125,-7.735 -41.125,-7.735 -55.238,19.042c-14.123,26.767 -14.123,26.767 -7.222,37.598" style="fill-rule:nonzero;"/><path d="M474.479,75.25c21.076,29.591 21.076,29.591 36.422,20.807c15.345,-8.795 15.345,-8.795 25.81,-29.157c10.455,-20.363 10.455,-20.363 7.989,-27.342c-2.476,-6.979 -2.476,-6.979 -44.441,-3.923c-41.954,3.045 -41.954,3.045 -44.41,6.535c-2.456,3.489 -2.456,3.489 18.63,33.08" style="fill-rule:nonzero;"/><path d="M553.487,101.321c24.153,12.92 24.153,12.92 38.172,-5.274c14.03,-18.205 14.03,-18.205 -13.677,-33.293c-27.718,-15.087 -27.718,-15.087 -38.183,5.275c-10.455,20.373 -10.455,20.373 13.688,33.292" style="fill-rule:nonzero;"/><path d="M706.549,116.661c2.891,14.271 2.891,14.271 14.838,19.415c11.957,5.143 11.957,5.143 74.749,-1.342c62.802,-6.485 62.802,-6.485 48.886,-57.446c-13.905,-50.962 -13.905,-50.962 -57.403,-43.983c-43.499,6.979 -43.499,6.979 -63.735,38.032c-20.226,31.053 -20.226,31.053 -17.335,45.324" style="fill-rule:nonzero;"/><path d="M378.572,126.132c4.652,17.296 4.652,17.296 10.248,24.84c5.595,7.544 5.595,7.544 21.946,7.786c16.35,0.242 16.35,0.242 48.637,-25.062c32.277,-25.295 32.277,-25.295 11.263,-55.37c-21.013,-30.064 -21.013,-30.064 -35.727,-25.849c-14.703,4.206 -14.703,4.206 -37.861,30.287c-23.169,26.071 -23.169,26.071 -18.506,43.368" style="fill-rule:nonzero;"/><path d="M558.461,156.559c15.055,-14.513 15.055,-14.513 16.371,-27.392c1.316,-12.879 1.316,-12.879 -22.837,-25.798c-24.153,-12.93 -24.153,-12.93 -39.561,-3.661c-15.408,9.268 -15.408,9.268 7.782,40.311c23.199,31.043 23.199,31.043 38.245,16.54" style="fill-rule:nonzero;"/><path d="M1000.94,136.883c34.266,13.958 34.266,13.958 34.266,-55.38c0,-69.337 0,-69.337 -34.266,-13.958c-34.266,55.389 -34.266,55.389 0,69.338" style="fill-rule:nonzero;"/><path d="M599.078,146c22.267,4.468 22.267,4.468 23.531,-32.929c1.265,-37.407 1.265,-37.407 -6.921,-35.551c-8.196,1.855 -8.196,1.855 -22.226,20.049c-14.019,18.195 -14.019,18.195 -15.335,31.074c-1.316,12.879 -1.316,12.879 20.951,17.357" style="fill-rule:nonzero;"/><path d="M644.037,163.135c19.895,12.355 19.895,12.355 39.665,-9.45c19.78,-21.805 19.78,-21.805 16.879,-36.076c-2.891,-14.271 -2.891,-14.271 -37.312,-28.451c-34.432,-14.17 -34.432,-14.17 -36.774,23.721c-2.352,37.891 -2.352,37.891 17.542,50.256" style="fill-rule:nonzero;"/><path d="M24.297,144.84c45.819,5.991 45.819,5.991 48.472,-8.875c2.652,-14.856 2.652,-14.856 -45.83,-65.667c-48.472,-50.82 -48.472,-50.82 -48.472,8.865c0,59.686 0,59.686 45.83,65.677" style="fill-rule:nonzero;"/><path d="M230.214,146.494c3.388,42.339 3.388,42.339 75.257,20.09c71.878,-22.258 71.878,-22.258 67.216,-39.545c-4.653,-17.296 -4.653,-17.296 -13.046,-21.956c-8.393,-4.669 -8.393,-4.669 -70.594,-2.794c-62.211,1.876 -62.211,1.876 -58.833,44.205" style="fill-rule:nonzero;"/><path d="M79.1,190.396c1.917,37.68 1.917,37.68 66.791,31.951c64.874,-5.729 64.874,-5.729 72.428,-18.204c7.543,-12.486 7.543,-12.486 4.414,-55.844c-3.129,-43.347 -3.129,-43.347 -10.02,-54.179c-6.901,-10.832 -6.901,-10.832 -20.785,-12.647c-13.885,-1.825 -13.885,-1.825 -22.309,-1.15c-8.434,0.666 -8.434,0.666 -47.788,21.664c-39.353,20.998 -39.353,20.998 -42.006,35.864c-2.653,14.866 -2.653,14.866 -0.725,52.545" style="fill-rule:nonzero;"/><path d="M439.011,167.583c8.839,5.95 8.839,5.95 53.104,19.808c44.275,13.867 44.275,13.867 46.638,-0.192c2.372,-14.069 2.372,-14.069 -20.889,-44.638c-23.262,-30.579 -23.262,-30.579 -55.477,-5.749c-32.214,24.831 -32.214,24.831 -23.376,30.771" style="fill-rule:nonzero;"/><path d="M24.877,251.857c45.985,-16.701 45.985,-16.701 45.819,-56.358c-0.155,-39.666 -0.155,-39.666 -45.985,-45.646c-45.829,-5.991 -45.829,-5.991 -45.829,56.357c-0,62.349 -0,62.349 45.995,45.647" style="fill-rule:nonzero;"/><path d="M545.913,216.598c4.362,14.362 4.362,14.362 56.771,0.616c52.409,-13.747 52.409,-13.747 55.207,-26.092c2.808,-12.354 2.808,-12.354 -17.086,-24.709c-19.895,-12.365 -19.895,-12.365 -42.162,-16.833c-22.267,-4.478 -22.267,-4.478 -37.323,10.035c-15.045,14.503 -15.045,14.503 -17.418,28.573c-2.362,14.059 -2.362,14.059 2.011,28.41" style="fill-rule:nonzero;"/><path d="M984.48,169.257c15.107,39.999 15.107,39.999 33.147,57.447c18.039,17.458 18.039,17.458 18.039,-27.15c0,-44.608 0,-44.608 -33.136,-57.447c-33.147,-12.839 -33.147,-12.839 -18.05,27.15" style="fill-rule:nonzero;"/><path d="M748.949,180.291c14.475,35.218 14.475,35.218 25.883,38.768c11.398,3.54 11.398,3.54 45.685,-23.681c34.287,-27.23 34.287,-27.23 36.846,-45.132c2.549,-17.912 2.549,-17.912 -60.17,-11.538c-62.719,6.364 -62.719,6.364 -48.244,41.583" style="fill-rule:nonzero;"/><path d="M379.546,197.002c9.875,-34.381 9.875,-34.381 4.279,-41.925c-5.585,-7.544 -5.585,-7.544 -77.712,15.723c-72.127,23.267 -72.127,23.267 -4.279,41.925c67.848,18.659 67.848,18.659 77.712,-15.723" style="fill-rule:nonzero;"/><path d="M939.717,156.923c5.627,26.605 5.627,26.605 12.579,38.829c6.953,12.233 6.953,12.233 25.894,12.344c18.931,0.121 18.931,0.121 3.834,-39.878c-15.097,-39.989 -15.097,-39.989 -17.346,-42.218c-2.248,-2.218 -2.248,-2.218 -16.412,1.049c-14.165,3.278 -14.165,3.278 -8.549,29.874" style="fill-rule:nonzero;"/><path d="M869.641,191.415c9.958,23.055 9.958,23.055 29.075,36.529c19.128,13.465 19.128,13.465 31.282,-15.047c12.165,-28.522 12.165,-28.522 6.538,-55.117c-5.616,-26.596 -5.616,-26.596 -38.607,-26.041c-32.981,0.565 -32.981,0.565 -35.613,18.588c-2.642,18.022 -2.642,18.022 7.325,41.088" style="fill-rule:nonzero;"/><path d="M664.647,210.335c3.875,6.294 3.875,6.294 7.45,8.492c3.564,2.189 3.564,2.189 34.121,3.923c30.546,1.735 30.546,1.735 40.897,-1.966c10.351,-3.702 10.351,-3.702 -3.471,-39.233c-13.833,-35.531 -13.833,-35.531 -25.78,-40.674c-11.947,-5.144 -11.947,-5.144 -31.727,16.671c-19.77,21.805 -19.77,21.805 -22.568,34.149c-2.798,12.355 -2.798,12.355 1.078,18.638" style="fill-rule:nonzero;"/><path d="M939.883,225.917c18.392,-15.491 18.392,-15.491 11.439,-27.715c-6.952,-12.233 -6.952,-12.233 -18.392,15.482c-11.439,27.725 -11.439,27.725 6.953,12.233" style="fill-rule:nonzero;"/><path d="M463.413,229.77c14.413,52.172 14.413,52.172 34.494,55.742c20.081,3.581 20.081,3.581 32.701,-19.051c12.621,-22.622 12.621,-22.622 14.134,-27.523c1.523,-4.892 1.523,-4.892 -2.839,-19.254c-4.373,-14.351 -4.373,-14.351 -48.648,-28.219c-44.265,-13.857 -44.265,-13.857 -29.842,38.305" style="fill-rule:nonzero;"/><path d="M389.949,244.939c11.336,13.292 11.336,13.292 35.323,24.366c23.977,11.074 23.977,11.074 36.048,11.266c12.071,0.191 12.071,0.191 -2.352,-51.971c-14.423,-52.172 -14.423,-52.172 -23.262,-58.113c-8.838,-5.94 -8.838,-5.94 -25.189,-6.182c-16.351,-0.242 -16.351,-0.242 -24.122,33.544c-7.771,33.797 -7.771,33.797 3.554,47.09" style="fill-rule:nonzero;"/><path d="M953.54,289.264c14.599,5.951 14.599,5.951 19.925,6.929c5.326,0.978 5.326,0.978 32.826,-4.569c27.51,-5.537 27.51,-5.537 27.51,-24.649c0,-19.112 0,-19.112 -18.04,-36.57c-18.05,-17.448 -18.05,-17.448 -36.98,-17.569c-18.941,-0.121 -18.941,-0.121 -38.059,16.178c-19.107,16.288 -19.107,16.288 -10.444,35.299c8.662,19.011 8.662,19.011 23.262,24.951" style="fill-rule:nonzero;"/><path d="M794.561,257.798c6.942,31.9 6.942,31.9 14.05,40.815c7.108,8.926 7.108,8.926 37.302,-36.065c30.194,-44.992 30.194,-44.992 20.237,-68.057c-9.968,-23.055 -9.968,-23.055 -44.245,4.165c-34.286,27.231 -34.286,27.231 -27.344,59.142" style="fill-rule:nonzero;"/><path d="M218.35,226.835c2.259,5.86 2.259,5.86 23.811,17.851c21.542,11.982 21.542,11.982 62.232,8.886c40.69,-3.107 40.69,-3.107 49.487,-11.084c8.808,-7.978 8.808,-7.978 -57.196,-26.212c-66.004,-18.235 -66.004,-18.235 -73.298,-6.768c-7.305,11.467 -7.305,11.467 -5.036,17.327" style="fill-rule:nonzero;"/><path d="M693.68,254.066c17.75,30.145 17.75,30.145 23.521,28.027c5.771,-2.128 5.771,-2.128 12.797,-28.41c7.035,-26.293 7.035,-26.293 -23.511,-28.028c-30.556,-1.725 -30.556,-1.725 -12.807,28.411" style="fill-rule:nonzero;"/><path d="M732.08,279.915c7.709,0.04 7.709,0.04 16.745,-29.682c9.035,-29.711 9.035,-29.711 -0.674,-26.323c-9.709,3.379 -9.709,3.379 -16.734,29.672c-7.035,26.283 -7.035,26.283 0.663,26.333" style="fill-rule:nonzero;"/><path d="M769.911,284.817c28.681,5.113 28.681,5.113 21.738,-26.798c-6.942,-31.9 -6.942,-31.9 -18.993,-35.137c-12.06,-3.238 -12.06,-3.238 -21.738,26.797c-9.678,30.034 -9.678,30.034 18.993,35.138" style="fill-rule:nonzero;"/><path d="M595.669,260.884c47.467,17.538 47.467,17.538 57.818,-12.355c10.341,-29.893 10.341,-29.893 6.455,-36.177c-3.875,-6.293 -3.875,-6.293 -56.284,7.453c-52.409,13.747 -52.409,13.747 -53.932,18.649c-1.513,4.891 -1.513,4.891 45.943,22.43" style="fill-rule:nonzero;"/><path d="M288.913,278.523c23.458,19.969 23.458,19.969 40.69,-3.096c17.231,-23.076 17.231,-23.076 -23.459,-19.979c-40.69,3.106 -40.69,3.106 -17.231,23.075" style="fill-rule:nonzero;"/><path d="M831.604,321.054c12.838,8.108 12.838,8.108 57.476,-14.16c44.638,-22.259 44.638,-22.259 35.24,-40.473c-9.388,-18.215 -9.388,-18.215 -27.78,-32.486c-18.392,-14.271 -18.392,-14.271 -48.088,32.375c-29.697,46.635 -29.697,46.635 -16.848,54.744" style="fill-rule:nonzero;"/><path d="M647.882,289.627c1.626,9.178 1.626,9.178 18.744,15.905c17.107,6.727 17.107,6.727 22.516,7.766c5.408,1.039 5.408,1.039 12.921,-13.454c7.522,-14.493 7.522,-14.493 -10.227,-44.628c-17.75,-30.146 -17.75,-30.146 -21.314,-32.345c-3.575,-2.198 -3.575,-2.198 -13.916,27.695c-10.341,29.894 -10.341,29.894 -8.724,39.061" style="fill-rule:nonzero;"/><path d="M544.545,309.435c21.21,18.346 21.21,18.346 40.006,17.67c18.796,-0.676 18.796,-0.676 39.696,-14.019c20.899,-13.343 20.899,-13.343 19.283,-22.521c-1.627,-9.167 -1.627,-9.167 -49.094,-26.706c-47.467,-17.539 -47.467,-17.539 -59.279,4.841c-11.812,22.38 -11.812,22.38 9.388,40.735" style="fill-rule:nonzero;"/><path d="M315.086,307.297c0.425,8.542 0.425,8.542 22.412,14.442c21.977,5.911 21.977,5.911 41.136,-27.472c19.148,-33.393 19.148,-33.393 7.823,-46.686c-11.335,-13.293 -11.335,-13.293 -15.532,-12.113c-4.196,1.19 -4.196,1.19 -12.993,9.168c-8.797,7.988 -8.797,7.988 -26.039,31.053c-17.232,23.076 -17.232,23.076 -16.807,31.608" style="fill-rule:nonzero;"/><path d="M220.578,274.832c0.103,38.779 0.103,38.779 23.034,52.878c22.93,14.089 22.93,14.089 40.016,6.848c17.097,-7.251 17.097,-7.251 22.402,-12.385c5.305,-5.133 5.305,-5.133 4.88,-13.666c-0.424,-8.532 -0.424,-8.532 -23.883,-28.501c-23.449,-19.98 -23.449,-19.98 -45.001,-31.961c-21.542,-11.992 -21.542,-11.992 -21.448,26.787" style="fill-rule:nonzero;"/><path d="M100.175,293.722c26.827,51.022 26.827,51.022 42.1,59.696c15.273,8.673 15.273,8.673 43.923,-16.066c28.65,-24.75 28.65,-24.75 28.556,-63.529c-0.093,-38.768 -0.093,-38.768 -2.362,-44.638c-2.269,-5.86 -2.269,-5.86 -67.144,-0.131c-64.863,5.728 -64.863,5.728 -68.386,9.682c-3.523,3.964 -3.523,3.964 23.313,54.986" style="fill-rule:nonzero;"/><path d="M713.481,345.672c14.952,29.48 14.952,29.48 30.577,20.968c15.615,-8.512 15.615,-8.512 42.815,-28.723c27.199,-20.212 27.199,-20.212 26.194,-23.51c-0.995,-3.298 -0.995,-3.298 -8.103,-12.213c-7.108,-8.926 -7.108,-8.926 -35.789,-14.029c-28.671,-5.113 -28.671,-5.113 -36.38,-5.154c-7.698,-0.04 -7.698,-0.04 -13.47,2.078c-5.771,2.118 -5.771,2.118 -13.284,16.611c-7.522,14.492 -7.522,14.492 7.44,43.972" style="fill-rule:nonzero;"/><path d="M376.178,352.288c14.393,22.753 14.393,22.753 43.136,-22.309c28.743,-45.062 28.743,-45.062 4.756,-56.135c-23.977,-11.074 -23.977,-11.074 -43.136,22.309c-19.148,33.393 -19.148,33.393 -4.756,56.135" style="fill-rule:nonzero;"/><path d="M622.164,341.88c16.029,13.979 16.029,13.979 38.017,-6.616c21.987,-20.594 21.987,-20.594 4.87,-27.321c-17.107,-6.728 -17.107,-6.728 -38.007,6.616c-20.899,13.343 -20.899,13.343 -4.88,27.321" style="fill-rule:nonzero;"/><path d="M861.031,362.989c14.879,30.962 14.879,30.962 21.044,32.011c6.166,1.049 6.166,1.049 44.348,-47.28c38.183,-48.34 38.183,-48.34 23.583,-54.28c-14.599,-5.951 -14.599,-5.951 -59.227,16.318c-44.638,22.259 -44.638,22.259 -29.748,53.231" style="fill-rule:nonzero;"/><path d="M426.484,395.646c33.261,16.106 33.261,16.106 59.942,-42.631c26.671,-58.748 26.671,-58.748 7.399,-62.561c-19.273,-3.822 -19.273,-3.822 -31.334,-4.014c-12.071,-0.191 -12.071,-0.191 -40.669,46.454c-28.609,46.635 -28.609,46.635 4.662,62.752" style="fill-rule:nonzero;"/><path d="M653.819,380.901c13.408,23.156 13.408,23.156 37.53,21.26c24.132,-1.906 24.132,-1.906 28.95,-13.242c4.818,-11.336 4.818,-11.336 -10.144,-40.816c-14.962,-29.48 -14.962,-29.48 -20.361,-30.519c-5.408,-1.028 -5.408,-1.028 -27.396,19.556c-21.987,20.595 -21.987,20.595 -8.579,43.761" style="fill-rule:nonzero;"/><path d="M6.879,383.543c27.883,17.045 27.883,17.045 71.06,-9.692c43.177,-26.726 43.177,-26.726 16.351,-77.759c-26.837,-51.022 -26.837,-51.022 -71.06,-36.298c-44.234,14.715 -44.234,14.715 -44.234,60.705c-0,46 -0,46 27.883,63.044" style="fill-rule:nonzero;"/><path d="M325.21,370.936c20.495,40.635 20.495,40.635 41.819,25.103c21.324,-15.531 21.324,-15.531 6.797,-39.868c-14.537,-24.326 -14.537,-24.326 -36.514,-30.236c-21.987,-5.91 -21.987,-5.91 -27.293,-0.777c-5.305,5.134 -5.305,5.134 15.191,45.778" style="fill-rule:nonzero;"/><path d="M905.524,403.462c15.242,6.556 15.242,6.556 34.815,-5.688c19.583,-12.234 19.583,-12.234 28.277,-53.907c8.693,-41.673 8.693,-41.673 3.357,-42.652c-5.326,-0.968 -5.326,-0.968 -43.508,47.362c-38.173,48.34 -38.173,48.34 -22.941,54.885" style="fill-rule:nonzero;"/><path d="M268.386,372.943c0.29,26.445 0.29,26.445 19.47,43.398c19.19,16.944 19.19,16.944 26.733,18.507c7.553,1.553 7.553,1.553 18.122,-9.995c10.58,-11.558 10.58,-11.558 -9.916,-52.202c-20.495,-40.634 -20.495,-40.634 -37.592,-33.393c-17.097,7.251 -17.097,7.251 -16.817,33.685" style="fill-rule:nonzero;"/><path d="M167.049,390.058c6.404,23.54 6.404,23.54 51.86,15.794c45.467,-7.735 45.467,-7.735 45.188,-34.169c-0.28,-26.444 -0.28,-26.444 -23.211,-40.544c-22.93,-14.099 -22.93,-14.099 -51.59,10.65c-28.65,24.74 -28.65,24.74 -22.247,48.269" style="fill-rule:nonzero;"/><path d="M568.304,342.435c1.513,11.013 1.513,11.013 21.739,50.336c20.226,39.324 20.226,39.324 46.72,25.446c26.495,-13.867 26.495,-13.867 13.077,-37.034c-13.408,-23.156 -13.408,-23.156 -29.427,-37.134c-16.03,-13.979 -16.03,-13.979 -34.826,-13.303c-18.796,0.676 -18.796,0.676 -17.283,11.689" style="fill-rule:nonzero;"/><path d="M999.141,398.268c36.204,13.333 36.204,13.333 36.204,-47.21c-0,-60.533 -0,-60.533 -27.51,-54.996c-27.51,5.547 -27.51,5.547 -36.193,47.22c-8.694,41.663 -8.694,41.663 27.499,54.986" style="fill-rule:nonzero;"/><path d="M465.517,416.926c2.238,4.246 2.238,4.246 33.167,-5.426c30.919,-9.672 30.919,-9.672 48.762,-34.109c17.832,-24.427 17.832,-24.427 16.32,-35.45c-1.513,-11.014 -1.513,-11.014 -23.521,-29.117c-22.008,-18.104 -22.008,-18.104 -49.487,40.886c-27.49,58.98 -27.49,58.98 -25.241,63.216" style="fill-rule:nonzero;"/><path d="M803.182,394.829c39.83,34.008 39.83,34.008 54.419,17.216c14.6,-16.792 14.6,-16.792 -0.29,-47.765c-14.879,-30.962 -14.879,-30.962 -27.23,-37.427c-12.341,-6.455 -12.341,-6.455 -39.54,13.756c-27.2,20.212 -27.2,20.212 12.641,54.22" style="fill-rule:nonzero;"/><path d="M563.071,422.998c30.256,18.335 30.256,18.335 37.458,15.955c7.191,-2.37 7.191,-2.37 -12.424,-42.763c-19.614,-40.402 -19.614,-40.402 -37.447,-15.965c-17.843,24.437 -17.843,24.437 12.413,42.773" style="fill-rule:nonzero;"/><path d="M731.935,426.558c12.372,23.721 12.372,23.721 52.409,26.424c40.048,2.693 40.048,2.693 47.902,-9.571c7.865,-12.274 7.865,-12.274 -31.976,-46.283c-39.83,-33.998 -39.83,-33.998 -55.455,-25.486c-15.615,8.513 -15.615,8.513 -20.433,19.849c-4.819,11.336 -4.819,11.336 7.553,35.067" style="fill-rule:nonzero;"/><path d="M58.957,445.055c20.174,39.585 20.174,39.585 26.339,42.631c6.176,3.046 6.176,3.046 39.84,-16.671c33.676,-19.717 33.676,-19.717 38.515,-37.165c4.839,-17.448 4.839,-17.448 -1.565,-40.978c-6.403,-23.539 -6.403,-23.539 -21.676,-32.203c-15.263,-8.673 -15.263,-8.673 -58.45,18.064c-43.177,26.726 -43.177,26.726 -23.003,66.322" style="fill-rule:nonzero;"/><path d="M941.904,450.884c19.148,37.165 19.148,37.165 55.776,22.783c36.629,-14.372 36.629,-14.372 36.629,-36.066c-0,-21.703 -0,-21.703 -36.193,-35.026c-36.204,-13.323 -36.204,-13.323 -55.777,-1.08c-19.584,12.234 -19.584,12.234 -0.435,49.389" style="fill-rule:nonzero;"/><path d="M476.231,439.397c8.424,12.183 8.424,12.183 31.178,21.068c22.744,8.875 22.744,8.875 52.575,-4.568c29.831,-13.455 29.831,-13.455 -0.436,-31.79c-30.256,-18.335 -30.256,-18.335 -60.999,-7.614c-30.743,10.72 -30.743,10.72 -22.318,22.904" style="fill-rule:nonzero;"/><path d="M192.777,471.287c28.536,19.233 28.536,19.233 69.486,-8.23c40.959,-27.473 40.959,-27.473 21.78,-44.426c-19.19,-16.944 -19.19,-16.944 -64.657,-9.208c-45.467,7.735 -45.467,7.735 -50.306,25.183c-4.828,17.448 -4.828,17.448 23.697,36.681" style="fill-rule:nonzero;"/><path d="M330.94,447.919c4.082,9.541 4.082,9.541 30.079,28.007c25.998,18.457 25.998,18.457 63.507,-15.239c37.509,-33.685 37.509,-33.685 35.084,-38.98c-2.424,-5.295 -2.424,-5.295 -35.55,-19.818c-33.127,-14.523 -33.127,-14.523 -54.596,-0.575c-21.469,13.948 -21.469,13.948 -32.038,25.506c-10.569,11.558 -10.569,11.558 -6.486,21.099" style="fill-rule:nonzero;"/><path d="M10.133,482.512c31.872,10.953 31.872,10.953 48.047,7.08c16.184,-3.863 16.184,-3.863 -3.99,-43.458c-20.174,-39.586 -20.174,-39.586 -48.057,-56.63c-27.873,-17.055 -27.873,-17.055 -27.873,32.505c0,49.56 0,49.56 31.873,60.503" style="fill-rule:nonzero;"/><path d="M841.655,479.809c11.263,22.38 11.263,22.38 60.926,19.243c49.674,-3.136 49.674,-3.136 51.746,-6.676c2.073,-3.54 2.073,-3.54 -17.076,-40.695c-19.148,-37.155 -19.148,-37.155 -34.38,-43.711c-15.242,-6.555 -15.242,-6.555 -21.397,-7.604c-6.165,-1.049 -6.165,-1.049 -20.764,15.743c-14.589,16.793 -14.589,16.793 -22.454,29.057c-7.854,12.274 -7.854,12.274 3.399,34.643" style="fill-rule:nonzero;"/><path d="M660.367,496.723c33.634,8.512 33.634,8.512 51.933,-6.324c18.299,-14.826 18.299,-14.826 22.775,-26.535c4.476,-11.709 4.476,-11.709 -7.896,-35.43c-12.372,-23.731 -12.372,-23.731 -36.494,-21.825c-24.121,1.896 -24.121,1.896 -51.227,16.843c-27.107,14.946 -27.107,14.946 -19.916,39.857c7.181,24.901 7.181,24.901 40.825,33.414" style="fill-rule:nonzero;"/><path d="M395.306,518.729c6.134,21.351 6.134,21.351 35.385,21.875c29.251,0.535 29.251,0.535 39.799,-42.853c10.548,-43.377 10.548,-43.377 2.3,-54.512c-8.247,-11.124 -8.247,-11.124 -45.933,21.513c-37.685,32.636 -37.685,32.636 -31.551,53.977" style="fill-rule:nonzero;"/><path d="M226.784,499.395c2.477,7.03 2.477,7.03 38.494,14.715c36.017,7.695 36.017,7.695 50.109,-23.388c14.092,-31.084 14.092,-31.084 10.009,-40.625c-4.082,-9.551 -4.082,-9.551 -11.636,-11.104c-7.554,-1.563 -7.554,-1.563 -48.503,25.91c-40.96,27.473 -40.96,27.473 -38.473,34.492" style="fill-rule:nonzero;"/><path d="M539.582,498.921c5.812,27.241 5.812,27.241 34.069,29.228c28.266,1.977 28.266,1.977 38.4,-18.164c10.144,-20.141 10.144,-20.141 2.342,-43.973c-7.803,-23.822 -7.803,-23.822 -14.382,-22.521c-6.59,1.301 -6.59,1.301 -36.411,14.745c-29.831,13.444 -29.831,13.444 -24.018,40.685" style="fill-rule:nonzero;"/><path d="M8.972,519.052c31.873,-22.682 31.873,-22.682 0,-33.625c-31.872,-10.943 -31.872,-10.943 -31.872,22.682c-0,33.625 -0,33.625 31.872,10.943" style="fill-rule:nonzero;"/><path d="M766.046,526.414c29.199,47.382 29.199,47.382 39.312,43.045c10.113,-4.337 10.113,-4.337 18.775,-11.78c8.662,-7.453 8.662,-7.453 16.465,-29.681c7.802,-22.239 7.802,-22.239 -3.461,-44.608c-11.253,-22.38 -11.253,-22.38 -51.301,-25.073c-40.037,-2.703 -40.037,-2.703 -44.524,9.006c-4.476,11.71 -4.476,11.71 24.734,59.091" style="fill-rule:nonzero;"/><path d="M472.676,549.631c9.502,7.272 9.502,7.272 29.355,3.348c19.853,-3.923 19.853,-3.923 29.603,-14.533c9.751,-10.62 9.751,-10.62 3.938,-37.851c-5.803,-27.241 -5.803,-27.241 -28.557,-36.126c-22.754,-8.875 -22.754,-8.875 -33.302,34.513c-10.538,43.387 -10.538,43.387 -1.037,50.649" style="fill-rule:nonzero;"/><path d="M311.263,547.957c6.756,23.398 6.756,23.398 27.976,32.445c21.221,9.046 21.221,9.046 39.468,-14.675c18.257,-23.721 18.257,-23.721 12.123,-45.072c-6.134,-21.34 -6.134,-21.34 -32.142,-39.797c-25.997,-18.466 -25.997,-18.466 -40.089,12.617c-14.092,31.083 -14.092,31.083 -7.336,54.482" style="fill-rule:nonzero;"/><path d="M95.202,503.924c1.512,8.623 1.512,8.623 14.599,31.406c13.087,22.793 13.087,22.793 57.704,36.55c44.628,13.756 44.628,13.756 50.088,-24.871c5.451,-38.618 5.451,-38.618 2.974,-45.647c-2.476,-7.02 -2.476,-7.02 -31.012,-26.263c-28.526,-19.233 -28.526,-19.233 -62.201,0.484c-33.675,19.717 -33.675,19.717 -32.152,28.341" style="fill-rule:nonzero;"/><path d="M999.152,566.111c35.53,5.416 35.53,5.416 35.53,-48.592c-0,-54.008 -0,-54.008 -37.665,-37.861c-37.664,16.137 -37.664,16.137 -35.53,48.582c2.135,32.445 2.135,32.445 37.665,37.871" style="fill-rule:nonzero;"/><path d="M607.906,539.838c2.974,7.574 2.974,7.574 41.955,10.428c38.98,2.865 38.98,2.865 40.814,-19.202c1.824,-22.057 1.824,-22.057 -31.82,-30.569c-33.634,-8.523 -33.634,-8.523 -43.768,11.628c-10.144,20.141 -10.144,20.141 -7.181,27.715" style="fill-rule:nonzero;"/><path d="M698.705,569.883c5.917,16.046 5.917,16.046 47.799,9.964c41.881,-6.092 41.881,-6.092 14.195,-52.949c-27.676,-46.867 -27.676,-46.867 -45.974,-32.031c-18.299,14.836 -18.299,14.836 -20.123,36.893c-1.823,22.067 -1.823,22.067 4.103,38.123" style="fill-rule:nonzero;"/><path d="M220.298,592.888c3.409,5.083 3.409,5.083 48.233,-7.544c44.825,-12.617 44.825,-12.617 38.069,-36.016c-6.756,-23.388 -6.756,-23.388 -42.773,-31.083c-36.017,-7.695 -36.017,-7.695 -41.478,30.932c-5.46,38.628 -5.46,38.628 -2.051,43.711" style="fill-rule:nonzero;"/><path d="M889.277,572.303c51.01,20.968 51.01,20.968 60.647,5.305c9.636,-15.653 9.636,-15.653 6.465,-46.323c-3.181,-30.68 -3.181,-30.68 -52.844,-27.543c-49.674,3.137 -49.674,3.137 -57.476,25.365c-7.803,22.228 -7.803,22.228 43.208,43.196" style="fill-rule:nonzero;"/><path d="M-12.974,555.45c8.02,6.778 8.02,6.778 12.02,8.462c3.999,1.694 3.999,1.694 19.697,5.013c15.688,3.318 15.688,3.318 37.53,-18.84c21.842,-22.158 21.842,-22.158 28.028,-29.45c6.186,-7.292 6.186,-7.292 4.663,-15.915c-1.513,-8.623 -1.513,-8.623 -7.678,-11.658c-6.176,-3.046 -6.176,-3.046 -22.35,0.816c-16.185,3.873 -16.185,3.873 -48.057,26.556c-31.873,22.682 -31.873,22.682 -31.873,25.455c0,2.784 0,2.784 8.02,9.561" style="fill-rule:nonzero;"/><path d="M562.698,601.743c37.012,49.64 37.012,49.64 40.981,-1.059c3.968,-50.69 3.968,-50.69 1.005,-58.264c-2.964,-7.574 -2.964,-7.574 -31.23,-9.561c-28.256,-1.987 -28.256,-1.987 -38.007,8.633c-9.76,10.61 -9.76,10.61 27.251,60.251" style="fill-rule:nonzero;"/><path d="M623.096,653.693c17.968,1.432 17.968,1.432 30.516,-2.763c12.547,-4.196 12.547,-4.196 30.017,-32.899c17.46,-28.693 17.46,-28.693 11.533,-44.75c-5.927,-16.056 -5.927,-16.056 -44.908,-18.91c-38.991,-2.864 -38.991,-2.864 -42.058,47.513c-3.067,50.377 -3.067,50.377 14.9,51.809" style="fill-rule:nonzero;"/><path d="M11.801,593.21c9.46,24.256 9.46,24.256 15.2,22.42c5.741,-1.835 5.741,-1.835 6.238,-20.937c0.487,-19.102 0.487,-19.102 -15.211,-22.42c-15.687,-3.318 -15.687,-3.318 -6.227,20.937" style="fill-rule:nonzero;"/><path d="M41.528,615.277c7.44,2.219 7.44,2.219 22.33,-41.259c14.889,-43.479 14.889,-43.479 -6.943,-21.321c-21.842,22.158 -21.842,22.158 -22.329,41.26c-0.497,19.102 -0.497,19.102 6.942,21.32" style="fill-rule:nonzero;"/><path d="M-4.643,579.292c1.865,14.049 1.865,14.049 9.719,25.436c7.854,11.386 7.854,11.386 11.46,11.86c3.606,0.485 3.606,0.485 -5.72,-23.741c-9.335,-24.225 -9.335,-24.225 -13.335,-25.919c-4,-1.685 -4,-1.685 -2.124,12.364" style="fill-rule:nonzero;"/><path d="M72.147,626.765c21.262,9.873 21.262,9.873 34.162,-27.977c12.89,-37.861 12.89,-37.861 -0.186,-60.644c-13.087,-22.783 -13.087,-22.783 -19.273,-15.492c-6.186,7.292 -6.186,7.292 -21.075,50.771c-14.89,43.478 -14.89,43.478 6.372,53.342" style="fill-rule:nonzero;"/><path d="M367.371,605.797c3.357,13.474 3.357,13.474 16.133,24.629c12.776,11.154 12.776,11.154 52.15,-0.323c39.375,-11.477 39.375,-11.477 40.867,-40.554c1.492,-29.066 1.492,-29.066 -8.01,-36.338c-9.502,-7.271 -9.502,-7.271 -38.752,-7.806c-29.251,-0.524 -29.251,-0.524 -47.498,23.197c-18.247,23.721 -18.247,23.721 -14.89,37.195" style="fill-rule:nonzero;"/><path d="M489.245,627.35c8.859,7.453 8.859,7.453 52.14,20.746c43.27,13.282 43.27,13.282 48.585,9.5c5.316,-3.792 5.316,-3.792 -30.795,-53.745c-36.11,-49.954 -36.11,-49.954 -55.963,-46.031c-19.853,3.924 -19.853,3.924 -21.345,33c-1.492,29.066 -1.492,29.066 7.378,36.53" style="fill-rule:nonzero;"/><path d="M-5.545,619.967c17.75,-3.046 17.75,-3.046 9.896,-14.432c-7.854,-11.377 -7.854,-11.377 -17.75,-9.007c-9.885,2.381 -9.885,2.381 -9.885,14.433c0,12.052 0,12.052 17.739,9.006" style="fill-rule:nonzero;"/><path d="M863.684,607.713c43.767,38.829 43.767,38.829 58.988,22.935c15.222,-15.895 15.222,-15.895 15.895,-25.305c0.684,-9.42 0.684,-9.42 -50.326,-30.377c-51,-20.968 -51,-20.968 -59.663,-13.515c-8.662,7.443 -8.662,7.443 35.106,46.262" style="fill-rule:nonzero;"/><path d="M988.51,645.413c45.84,30.176 45.84,30.176 45.84,-19.647c0,-49.822 0,-49.822 -35.53,-55.248c-35.53,-5.416 -35.53,-5.416 -45.166,10.237c-9.637,15.652 -9.637,15.652 -10.31,25.072c-0.684,9.41 -0.684,9.41 45.166,39.586" style="fill-rule:nonzero;"/><path d="M156.273,651.182c58.885,11.235 58.885,11.235 60.761,-19.556c1.886,-30.801 1.886,-30.801 -1.523,-35.884c-3.399,-5.083 -3.399,-5.083 -48.026,-18.84c-44.618,-13.756 -44.618,-13.756 -57.352,24.639c-12.735,38.405 -12.735,38.405 46.14,49.641" style="fill-rule:nonzero;"/><path d="M801.835,597.719c1.171,17.841 1.171,17.841 25.987,39.414c24.816,21.583 24.816,21.583 49.28,19.233c24.464,-2.34 24.464,-2.34 26.37,-5.457c1.907,-3.126 1.907,-3.126 -41.861,-41.945c-43.767,-38.819 -43.767,-38.819 -52.368,-33.958c-8.589,4.861 -8.589,4.861 -7.408,22.713" style="fill-rule:nonzero;"/><path d="M232.172,687.399c10.984,23.781 10.984,23.781 71.288,-20.897c60.295,-44.669 60.295,-44.669 56.938,-58.143c-3.358,-13.474 -3.358,-13.474 -24.578,-22.521c-21.221,-9.047 -21.221,-9.047 -66.045,3.57c-44.825,12.617 -44.825,12.617 -46.711,43.418c-1.885,30.791 -1.885,30.791 9.108,54.573" style="fill-rule:nonzero;"/><path d="M685.09,653.532c14.268,6.243 14.268,6.243 44.773,11.457c30.494,5.214 30.494,5.214 49.29,-22.128c18.796,-27.352 18.796,-27.352 16.092,-45.717c-2.694,-18.376 -2.694,-18.376 -46.089,-12.809c-43.405,5.567 -43.405,5.567 -60.864,34.261c-17.47,28.703 -17.47,28.703 -3.202,34.936" style="fill-rule:nonzero;"/><path d="M-1.814,655.609c20.775,-27.382 20.775,-27.382 21.49,-31.93c0.704,-4.549 0.704,-4.549 -3.036,-5.063c-3.73,-0.505 -3.73,-0.505 -21.48,2.531c-17.749,3.046 -17.749,3.046 -17.749,32.445c-0,29.409 -0,29.409 20.775,2.017" style="fill-rule:nonzero;"/><path d="M28.711,670.526c7.398,41.451 7.398,41.451 22.568,41.148c15.169,-0.302 15.169,-0.302 27.924,-35.188c12.745,-34.896 12.745,-34.896 -8.683,-45.314c-21.417,-10.418 -21.417,-10.418 -28.857,-12.637c-7.44,-2.219 -7.44,-2.219 -13.056,-0.343c-5.605,1.866 -5.605,1.866 -6.445,6.384c-0.839,4.508 -0.839,4.508 6.549,45.95" style="fill-rule:nonzero;"/><path d="M5.439,719.319c28.163,-5.355 28.163,-5.355 20.775,-46.796c-7.388,-41.452 -7.388,-41.452 -28.163,-14.06c-20.775,27.382 -20.775,27.382 -20.775,46.797c-0,19.415 -0,19.415 28.163,14.059" style="fill-rule:nonzero;"/><path d="M404.269,674.146c6.673,28.825 6.673,28.825 29.106,32.576c22.443,3.752 22.443,3.752 41.581,-32.848c19.128,-36.6 19.128,-36.6 10.258,-44.053c-8.859,-7.464 -8.859,-7.464 -48.233,4.014c-39.385,11.477 -39.385,11.477 -32.712,40.311" style="fill-rule:nonzero;"/><path d="M767.797,680.077c4.777,7.423 4.777,7.423 35.188,6.979c30.401,-0.434 30.401,-0.434 38.825,-13.192c8.424,-12.758 8.424,-12.758 -16.392,-34.331c-24.816,-21.573 -24.816,-21.573 -43.612,5.769c-18.786,27.342 -18.786,27.342 -14.009,34.775" style="fill-rule:nonzero;"/><path d="M928.195,738.562c3.689,2.643 3.689,2.643 54.192,1.059c50.502,-1.583 50.502,-1.583 50.502,-30.73c0,-29.137 0,-29.137 -45.85,-59.313c-45.84,-30.176 -45.84,-30.176 -62.015,-12.728c-16.174,17.458 -16.174,17.458 -8.351,58.264c7.833,40.806 7.833,40.806 11.522,43.448" style="fill-rule:nonzero;"/><path d="M494.705,734.508c35.085,21.946 35.085,21.946 41.965,19.717c6.88,-2.229 6.88,-2.229 27.324,-45.264c20.433,-43.034 20.433,-43.034 -22.837,-56.317c-43.271,-13.282 -43.271,-13.282 -62.398,23.308c-19.128,36.6 -19.128,36.6 15.946,58.556" style="fill-rule:nonzero;"/><path d="M91.917,733.711c20.464,19.374 20.464,19.374 55.145,20.867c34.691,1.493 34.691,1.493 60.325,-19.636c25.645,-21.129 25.645,-21.129 16.486,-44.528c-9.16,-23.388 -9.16,-23.388 -67.88,-34.079c-58.719,-10.69 -58.719,-10.69 -71.63,23.651c-12.91,34.351 -12.91,34.351 7.554,53.725" style="fill-rule:nonzero;"/><path d="M272.614,730.524c22.277,15.945 22.277,15.945 72.904,1.715c50.617,-14.231 50.617,-14.231 55.622,-21.029c5.015,-6.797 5.015,-6.797 -1.658,-35.632c-6.663,-28.834 -6.663,-28.834 -19.439,-39.978c-12.776,-11.155 -12.776,-11.155 -71.246,33.907c-58.471,45.062 -58.471,45.062 -36.183,61.017" style="fill-rule:nonzero;"/><path d="M842.276,717.373c5.212,29.288 5.212,29.288 41.665,24.154c36.462,-5.143 36.462,-5.143 27.676,-44.386c-8.777,-39.242 -8.777,-39.242 -33.241,-36.903c-24.464,2.34 -24.464,2.34 -32.888,15.098c-8.424,12.759 -8.424,12.759 -3.212,42.037" style="fill-rule:nonzero;"/><path d="M787.536,730.474c12.175,38.072 12.175,38.072 27.178,33.564c15.004,-4.508 15.004,-4.508 22.496,-10.105c7.501,-5.598 7.501,-5.598 2.289,-34.886c-5.211,-29.288 -5.211,-29.288 -34.68,-27.967c-29.458,1.321 -29.458,1.321 -17.283,39.394" style="fill-rule:nonzero;"/><path d="M712.414,700.187c13.439,36.913 13.439,36.913 34.349,11.77c20.91,-25.143 20.91,-25.143 17.065,-31.699c-3.844,-6.545 -3.844,-6.545 -34.349,-11.76c-30.494,-5.214 -30.494,-5.214 -17.065,31.689" style="fill-rule:nonzero;"/><path d="M660.512,708.094c17.626,48.259 17.626,48.259 39.489,44.78c21.863,-3.48 21.863,-3.48 22.619,-9.309c0.756,-5.82 0.756,-5.82 -12.683,-42.732c-13.439,-36.903 -13.439,-36.903 -27.707,-43.146c-14.268,-6.233 -14.268,-6.233 -26.805,-2.037c-12.548,4.195 -12.548,4.195 5.087,52.444" style="fill-rule:nonzero;"/><path d="M753.394,768.244c27.842,17.105 27.842,17.105 35.706,8.855c7.875,-8.25 7.875,-8.25 -5.243,-47.2c-13.117,-38.95 -13.117,-38.95 -34.96,-14.685c-21.842,24.266 -21.842,24.266 -22.599,30.085c-0.756,5.83 -0.756,5.83 27.096,22.945" style="fill-rule:nonzero;"/><path d="M584.448,783.443c36.245,30.7 36.245,30.7 53.403,20.191c17.159,-10.509 17.159,-10.509 26.92,-28.471c9.761,-17.963 9.761,-17.963 -7.875,-66.212c-17.635,-48.259 -17.635,-48.259 -36.504,-49.368c-18.868,-1.11 -18.868,-1.11 -25.085,2.985c-6.217,4.105 -6.217,4.105 -26.651,47.14c-20.443,43.034 -20.443,43.034 15.792,73.735" style="fill-rule:nonzero;"/><path d="M410.527,775.768c9.647,54.31 9.647,54.31 31.313,56.095c21.666,1.785 21.666,1.785 52.886,-35.41c31.22,-37.195 31.22,-37.195 -3.865,-59.151c-35.074,-21.956 -35.074,-21.956 -57.517,-25.698c-22.444,-3.752 -22.444,-3.752 -27.459,3.046c-5.004,6.797 -5.004,6.797 4.642,61.118" style="fill-rule:nonzero;"/><path d="M302.227,767.134c6.559,16.087 6.559,16.087 60.129,40.131c53.57,24.053 53.57,24.053 44.058,-30.317c-9.512,-54.371 -9.512,-54.371 -60.129,-40.141c-50.627,14.241 -50.627,14.241 -44.058,30.327" style="fill-rule:nonzero;"/><path d="M7.635,792.984c28.599,44.245 28.599,44.245 39.002,49.156c10.403,4.912 10.403,4.912 35.198,-40.664c24.806,-45.577 24.806,-45.577 4.342,-64.951c-20.465,-19.374 -20.465,-19.374 -35.634,-19.072c-15.169,0.293 -15.169,0.293 -43.343,5.658c-28.163,5.356 -28.163,5.356 -28.163,15.492c0,10.125 0,10.125 28.598,54.381" style="fill-rule:nonzero;"/><path d="M714.932,815.03c54.616,18.598 54.616,18.598 59.465,-4.326c4.86,-22.925 4.86,-22.925 -22.982,-40.03c-27.842,-17.115 -27.842,-17.115 -49.705,-13.635c-21.863,3.479 -21.863,3.479 -31.623,21.432c-9.761,17.962 -9.761,17.962 44.845,36.559" style="fill-rule:nonzero;"/><path d="M862.316,799.267c28.909,37.225 28.909,37.225 42.783,19.031c13.874,-18.194 13.874,-18.194 18.734,-45.324c4.849,-27.13 4.849,-27.13 1.16,-29.772c-3.688,-2.643 -3.688,-2.643 -40.141,2.491c-36.462,5.143 -36.462,5.143 -43.954,10.741c-7.502,5.597 -7.502,5.597 21.418,42.833" style="fill-rule:nonzero;"/><path d="M950.949,816.463c27.459,15.935 27.459,15.935 55.352,14.674c27.904,-1.261 27.904,-1.261 27.904,-44.648c0,-43.378 0,-43.378 -50.503,-41.795c-50.513,1.584 -50.513,1.584 -55.362,28.714c-4.849,27.13 -4.849,27.13 22.609,43.055" style="fill-rule:nonzero;"/><path d="M774.553,840.153c0.943,5.164 0.943,5.164 3.875,8.634c2.943,3.479 2.943,3.479 54.886,-3.813c51.942,-7.282 51.942,-7.282 23.852,-44.315c-28.09,-37.034 -28.09,-37.034 -43.094,-32.526c-15.004,4.518 -15.004,4.518 -22.879,12.768c-7.864,8.25 -7.864,8.25 -12.724,31.164c-4.859,22.925 -4.859,22.925 -3.916,28.088" style="fill-rule:nonzero;"/><path d="M5.584,843.593c28.598,-3.954 28.598,-3.954 -0,-48.209c-28.598,-44.245 -28.598,-44.245 -28.598,3.963c-0,48.209 -0,48.209 28.598,44.246" style="fill-rule:nonzero;"/><path d="M188.197,773.458c1.399,14.382 1.399,14.382 43.001,32.909c41.602,18.537 41.602,18.537 53.321,10.388c11.709,-8.159 11.709,-8.159 15.139,-21.23c3.44,-13.081 3.44,-13.081 -3.13,-29.167c-6.558,-16.086 -6.558,-16.086 -28.846,-32.032c-22.278,-15.955 -22.278,-15.955 -25.936,-16.731c-3.657,-0.777 -3.657,-0.777 -29.302,20.362c-25.645,21.129 -25.645,21.129 -24.247,35.501" style="fill-rule:nonzero;"/><path d="M192.042,836.512c4.155,45.405 4.155,45.405 41.602,18.528c37.447,-26.878 37.447,-26.878 -4.166,-45.415c-41.602,-18.527 -41.602,-18.527 -37.436,26.887" style="fill-rule:nonzero;"/><path d="M66.179,861.414c3.968,10.256 3.968,10.256 36.307,49.217c32.339,38.97 32.339,38.97 59.113,16.671c26.775,-22.309 26.775,-22.309 28.743,-33.514c1.969,-11.215 1.969,-11.215 -2.196,-56.62c-4.155,-45.415 -4.155,-45.415 -5.554,-59.797c-1.399,-14.372 -1.399,-14.372 -36.09,-15.864c-34.68,-1.493 -34.68,-1.493 -59.486,44.083c-24.806,45.567 -24.806,45.567 -20.837,55.824" style="fill-rule:nonzero;"/><path d="M904.063,860.647c9.408,20.847 9.408,20.847 40.514,-2.471c31.106,-23.307 31.106,-23.307 3.647,-39.242c-27.469,-15.925 -27.469,-15.925 -40.524,2.47c-13.056,18.396 -13.056,18.396 -3.637,39.243" style="fill-rule:nonzero;"/><path d="M310.361,851.036c9.574,38.839 9.574,38.839 37.478,34.25c27.904,-4.579 27.904,-4.579 47.281,-27.796c19.376,-23.216 19.376,-23.216 -34.049,-47.331c-53.424,-24.104 -53.424,-24.104 -56.865,-11.033c-3.429,13.07 -3.429,13.07 6.155,51.91" style="fill-rule:nonzero;"/><path d="M625.148,845.771c0.466,25.446 0.466,25.446 32.401,25.315c31.935,-0.122 31.935,-0.122 54.254,-4.489c22.319,-4.356 22.319,-4.356 40.306,-12.062c17.988,-7.705 17.988,-7.705 17.045,-12.869c-0.943,-5.164 -0.943,-5.164 -55.549,-23.761c-54.605,-18.598 -54.605,-18.598 -71.775,-8.079c-17.159,10.509 -17.159,10.509 -16.682,35.945" style="fill-rule:nonzero;"/><path d="M494.426,878.408c25.313,40.513 25.313,40.513 38.369,44.739c13.055,4.216 13.055,4.216 49.487,-23.782c36.442,-28.007 36.442,-28.007 35.976,-53.463c-0.456,-25.456 -0.456,-25.456 -36.701,-56.156c-36.235,-30.7 -36.235,-30.7 -43.126,-28.471c-6.88,2.229 -6.88,2.229 -38.099,39.424c-31.22,37.205 -31.22,37.205 -5.906,77.709" style="fill-rule:nonzero;"/><path d="M240.866,911.367c46.472,5.033 46.472,5.033 60.709,-7.403c14.226,-12.435 14.226,-12.435 4.642,-51.274c-9.585,-38.84 -9.585,-38.84 -21.294,-30.68c-11.708,8.149 -11.708,8.149 -49.155,35.026c-37.437,26.888 -37.437,26.888 -39.406,38.093c-1.968,11.205 -1.968,11.205 44.504,16.238" style="fill-rule:nonzero;"/><path d="M916.963,892.366c0.995,9.642 0.995,9.642 58.999,-7.312c58.005,-16.954 58.005,-16.954 58.005,-34.21c-0,-17.266 -0,-17.266 -27.894,-16.006c-27.904,1.261 -27.904,1.261 -59.009,24.579c-31.096,23.307 -31.096,23.307 -30.101,32.949" style="fill-rule:nonzero;"/><path d="M797.338,902.744c12.651,46.08 12.651,46.08 41.125,57.86c28.464,11.78 28.464,11.78 43.333,6.606c14.879,-5.174 14.879,-5.174 22.878,-34.26c7.989,-29.077 7.989,-29.077 6.994,-38.718c-0.994,-9.642 -0.994,-9.642 -11.221,-30.69c-10.238,-21.049 -10.238,-21.049 -62.989,-13.969c-52.761,7.09 -52.761,7.09 -40.12,53.171" style="fill-rule:nonzero;"/><path d="M21.282,890.44c42.969,-17.862 42.969,-17.862 39.001,-28.119c-3.969,-10.247 -3.969,-10.247 -14.372,-15.158c-10.403,-4.912 -10.403,-4.912 -39.001,-0.948c-28.598,3.953 -28.598,3.953 -28.598,33.02c-0,29.066 -0,29.066 42.97,11.205" style="fill-rule:nonzero;"/><path d="M699.483,896.914c9.232,23.843 9.232,23.843 22.319,-4.356c13.097,-28.21 13.097,-28.21 -9.233,-23.853c-22.319,4.367 -22.319,4.367 -13.086,28.209" style="fill-rule:nonzero;"/><path d="M688.489,939.526c15.449,3.499 15.449,3.499 16.806,-7.191c1.358,-10.691 1.358,-10.691 -7.874,-34.533c-9.233,-23.842 -9.233,-23.842 -41.167,-23.701c-31.945,0.141 -31.945,0.141 -7.575,31.043c24.361,30.892 24.361,30.892 39.81,34.382" style="fill-rule:nonzero;"/><path d="M907.772,965.879c6.621,2.39 6.621,2.39 66.004,-8.855c59.383,-11.245 59.383,-11.245 59.383,-48.42c-0,-37.186 -0,-37.186 -58.005,-20.232c-58.015,16.954 -58.015,16.954 -66.004,46.04c-7.999,29.077 -7.999,29.077 -1.378,31.467" style="fill-rule:nonzero;"/><path d="M729.314,958.002c21.303,14.342 21.303,14.342 48.026,2.965c26.723,-11.386 26.723,-11.386 14.071,-57.467c-12.652,-46.08 -12.652,-46.08 -15.594,-49.56c-2.943,-3.469 -2.943,-3.469 -20.92,4.236c-17.988,7.705 -17.988,7.705 -31.075,35.915c-13.097,28.199 -13.097,28.199 -14.454,38.889c-1.358,10.681 -1.358,10.681 19.946,25.022" style="fill-rule:nonzero;"/><path d="M391.928,914.846c11.357,31.871 11.357,31.871 51.373,28.623c40.027,-3.248 40.027,-3.248 55.29,-12.899c15.252,-9.642 15.252,-9.642 -10.061,-50.155c-25.303,-40.514 -25.303,-40.514 -47.115,-42.248c-21.801,-1.725 -21.801,-1.725 -41.312,21.542c-19.521,23.277 -19.521,23.277 -8.175,55.137" style="fill-rule:nonzero;"/><path d="M18.577,953.817c38.546,28.864 38.546,28.864 74.2,19.202c35.644,-9.661 35.644,-9.661 36.753,-14.321c1.119,-4.659 1.119,-4.659 -31.22,-43.63c-32.339,-38.97 -32.339,-38.97 -75.308,-21.109c-42.96,17.872 -42.96,17.872 -42.96,24.427c0,6.556 0,6.556 38.535,35.431" style="fill-rule:nonzero;"/><path d="M313.625,964.81c22.008,44.749 22.008,44.749 32.66,50.034c10.652,5.275 10.652,5.275 31.468,-29.914c20.827,-35.188 20.827,-35.188 9.481,-67.058c-11.356,-31.86 -11.356,-31.86 -39.25,-27.281c-27.904,4.589 -27.904,4.589 -42.14,17.024c-14.227,12.446 -14.227,12.446 7.781,57.195" style="fill-rule:nonzero;"/><path d="M572.532,991.567c24.142,59.05 24.142,59.05 60.802,2.894c36.659,-56.146 36.659,-56.146 12.289,-87.027c-24.371,-30.882 -24.371,-30.882 -60.802,-2.895c-36.442,27.987 -36.442,27.987 -12.289,87.028" style="fill-rule:nonzero;"/><path d="M15.883,1007.29c38.546,-22.349 38.546,-22.349 0,-51.224c-38.545,-28.865 -38.545,-28.865 -38.545,22.349c-0,51.224 -0,51.224 38.545,28.875" style="fill-rule:nonzero;"/><path d="M603.461,1074.61c4.756,19.979 4.756,19.979 73.133,-38.285c68.376,-58.264 68.376,-58.264 47.342,-72.636c-21.034,-14.371 -21.034,-14.371 -36.473,-17.861c-15.449,-3.49 -15.449,-3.49 -52.109,52.656c-36.659,56.146 -36.659,56.146 -31.893,76.126" style="fill-rule:nonzero;"/><path d="M139.964,975.964c4.269,10.449 4.269,10.449 31.157,36.147c26.889,25.688 26.889,25.688 92.095,12.365c65.206,-13.323 65.206,-13.323 43.197,-58.083c-22.008,-44.749 -22.008,-44.749 -68.48,-49.782c-46.472,-5.032 -46.472,-5.032 -73.246,17.267c-26.775,22.309 -26.775,22.309 -27.894,26.968c-1.108,4.67 -1.108,4.67 3.171,15.118" style="fill-rule:nonzero;"/><path d="M373.205,1044.79c13.014,20.877 13.014,20.877 24.857,25.183c11.844,4.297 11.844,4.297 21.77,2.794c9.927,-1.503 9.927,-1.503 35.996,-63.609c26.06,-62.117 26.06,-62.117 -13.967,-58.869c-40.027,3.247 -40.027,3.247 -60.844,38.436c-20.827,35.188 -20.827,35.188 -7.812,56.065" style="fill-rule:nonzero;"/><path d="M937.293,998.808c21.738,26.908 21.738,26.908 27.872,31.144c6.135,4.236 6.135,4.236 37.634,5.265c31.51,1.038 31.51,1.038 31.51,-42.39c-0,-43.418 -0,-43.418 -59.383,-32.172c-59.382,11.245 -59.382,11.245 -37.633,38.153" style="fill-rule:nonzero;"/><path d="M511.149,1084.05c75.07,13.02 75.07,13.02 81.774,11.023c6.694,-2.007 6.694,-2.007 3.451,-21.522c-3.243,-19.516 -3.243,-19.516 -27.396,-78.556c-24.143,-59.051 -24.143,-59.051 -37.199,-63.266c-13.055,-4.216 -13.055,-4.216 -28.308,5.426c-15.262,9.651 -15.262,9.651 -41.322,71.758c-26.06,62.116 -26.06,62.116 49,75.137" style="fill-rule:nonzero;"/><path d="M764.253,1030.93c9.896,53.292 9.896,53.292 28.65,51.426c18.765,-1.856 18.765,-1.856 34.173,-14.382c15.408,-12.526 15.408,-12.526 21.262,-22.823c5.865,-10.297 5.865,-10.297 10.859,-38.476c4.984,-28.189 4.984,-28.189 -23.48,-39.959c-28.463,-11.78 -28.463,-11.78 -54.916,-0.434c-26.443,11.347 -26.443,11.347 -16.548,64.648" style="fill-rule:nonzero;"/><path d="M666.356,1105.6c50.389,9.208 50.389,9.208 76.708,-5.406c26.308,-14.613 26.308,-14.613 16.143,-67.875c-10.165,-53.271 -10.165,-53.271 -76.697,5.396c-66.542,58.667 -66.542,58.667 -16.154,67.885" style="fill-rule:nonzero;"/><path d="M883.101,1055.06c24.495,20.423 24.495,20.423 33.676,22.349c9.19,1.927 9.19,1.927 23.748,-24.487c14.548,-26.414 14.548,-26.414 -7.19,-53.322c-21.75,-26.908 -21.75,-26.908 -28.371,-29.299c-6.621,-2.38 -6.621,-2.38 -21.49,2.794c-14.879,5.174 -14.879,5.174 -19.873,33.363c-4.984,28.179 -4.984,28.179 19.5,48.602" style="fill-rule:nonzero;"/><path d="M10.278,1111.43c30.235,14.815 30.235,14.815 48.109,5.184c17.884,-9.632 17.884,-9.632 48.233,-68.279c30.36,-58.637 30.36,-58.637 26.08,-69.086c-4.279,-10.458 -4.279,-10.458 -39.923,-0.796c-35.654,9.661 -35.654,9.661 -74.189,32.011c-38.546,22.349 -38.546,22.349 -38.546,54.25c0,31.91 0,31.91 30.236,46.716" style="fill-rule:nonzero;"/><path d="M974.47,1076.28c2.073,38.577 2.073,38.577 31.51,32.041c29.437,-6.535 29.437,-6.535 29.437,-37.548c0,-31.013 0,-31.013 -31.509,-32.042c-31.51,-1.038 -31.51,-1.038 -29.438,37.549" style="fill-rule:nonzero;"/><path d="M214.267,1057.2c8.435,14.049 8.435,14.049 53.404,41.068c44.97,27.009 44.97,27.009 79.008,-1.916c34.038,-28.915 34.038,-28.915 21.024,-49.802c-13.004,-20.877 -13.004,-20.877 -23.656,-26.152c-10.652,-5.275 -10.652,-5.275 -74.428,8.734c-63.776,14.019 -63.776,14.019 -55.352,28.068" style="fill-rule:nonzero;"/><path d="M946.369,1103.05c17.626,20.806 17.626,20.806 22.755,16.409c5.129,-4.398 5.129,-4.398 3.046,-42.985c-2.072,-38.577 -2.072,-38.577 -8.196,-42.813c-6.134,-4.235 -6.134,-4.235 -20.682,22.178c-14.558,26.414 -14.558,26.414 3.077,47.211" style="fill-rule:nonzero;"/><path d="M869.082,1098.89c23.593,40.695 23.593,40.695 30.349,10.116c6.746,-30.569 6.746,-30.569 -17.739,-50.992c-24.495,-20.423 -24.495,-20.423 -30.349,-10.126c-5.865,10.307 -5.865,10.307 17.739,51.002" style="fill-rule:nonzero;"/><path d="M897.618,1150.64c2.466,8.421 2.466,8.421 18.817,13.464c16.35,5.053 16.35,5.053 23.5,-1.14c7.149,-6.202 7.149,-6.202 14.755,-21.31c7.595,-15.118 7.595,-15.118 -10.03,-35.915c-17.636,-20.806 -17.636,-20.806 -26.827,-22.732c-9.19,-1.937 -9.19,-1.937 -15.936,28.643c-6.756,30.569 -6.756,30.569 -4.279,38.99" style="fill-rule:nonzero;"/><path d="M113.314,1126.17c32.846,17.094 32.846,17.094 55.808,-33.646c22.971,-50.74 22.971,-50.74 -2.487,-75.742c-25.448,-25.002 -25.448,-25.002 -55.808,33.646c-30.349,58.637 -30.349,58.637 2.487,75.742" style="fill-rule:nonzero;"/><path d="M826.195,1128.39c12.444,42.894 12.444,42.894 41.467,36.59c29.034,-6.303 29.034,-6.303 26.568,-14.724c-2.466,-8.422 -2.466,-8.422 -26.07,-49.117c-23.604,-40.695 -23.604,-40.695 -39.001,-28.168c-15.408,12.526 -15.408,12.526 -2.964,55.419" style="fill-rule:nonzero;"/><path d="M182.778,1153.13c33.551,9.642 33.551,9.642 34.09,-35.239c0.529,-44.87 0.529,-44.87 -9.325,-59.615c-9.865,-14.735 -9.865,-14.735 -34.101,35.239c-24.225,49.973 -24.225,49.973 9.336,59.615" style="fill-rule:nonzero;"/><path d="M230.162,1180.4c10.766,14.553 10.766,14.553 15.553,16.137c4.787,1.583 4.787,1.583 29.147,-15.36c24.371,-16.954 24.371,-16.954 29.956,-33.998c5.574,-17.055 5.574,-17.055 -39.395,-44.064c-44.97,-27.009 -44.97,-27.009 -45.498,17.861c-0.529,44.871 -0.529,44.871 10.237,59.424" style="fill-rule:nonzero;"/><path d="M748.897,1154.7c28.578,35.501 28.578,35.501 56.73,27.14c28.153,-8.35 28.153,-8.35 16.496,-51.97c-11.657,-43.62 -11.657,-43.62 -30.411,-41.754c-18.765,1.866 -18.765,1.866 -45.084,16.47c-26.308,14.613 -26.308,14.613 2.269,50.114" style="fill-rule:nonzero;"/><path d="M992.624,1167.42c42.161,10.358 42.161,10.358 42.161,-26.051c0,-36.418 0,-36.418 -29.437,-29.883c-29.437,6.535 -29.437,6.535 -34.556,10.933c-5.129,4.407 -5.129,4.407 -12.724,19.515c-7.595,15.118 -7.595,15.118 34.556,25.486" style="fill-rule:nonzero;"/><path d="M415.988,1121.11c2.663,41.592 2.663,41.592 39.146,53.14c36.473,11.548 36.473,11.548 60.823,-2.673c24.34,-14.21 24.34,-14.21 45.85,-41.622c21.511,-27.403 21.511,-27.403 -53.559,-40.423c-75.07,-13.02 -75.07,-13.02 -84.986,-11.518c-9.927,1.503 -9.927,1.503 -7.274,43.096" style="fill-rule:nonzero;"/><path d="M47.331,1162.59c5.315,30.479 5.315,30.479 15.895,39.122c10.579,8.653 10.579,8.653 40.545,-10.499c29.966,-19.153 29.966,-19.153 34.659,-31.588c4.694,-12.435 4.694,-12.435 -27.976,-29.611c-32.681,-17.175 -32.681,-17.175 -50.554,-7.544c-17.874,9.632 -17.874,9.632 -12.569,40.12" style="fill-rule:nonzero;"/><path d="M321.21,1175.61c16.506,12.052 16.506,12.052 47.923,15.461c31.416,3.408 31.416,3.408 37.623,-12.133c6.206,-15.532 6.206,-15.532 3.543,-57.124c-2.663,-41.593 -2.663,-41.593 -14.506,-45.899c-11.854,-4.297 -11.854,-4.297 -45.892,24.618c-34.038,28.925 -34.038,28.925 -39.623,45.97c-5.574,17.054 -5.574,17.054 10.932,29.107" style="fill-rule:nonzero;"/><path d="M2.683,1196.59c24.795,6.193 24.795,6.193 35.55,1.402c10.756,-4.78 10.756,-4.78 5.44,-35.269c-5.305,-30.478 -5.305,-30.478 -35.54,-45.283c-30.235,-14.816 -30.235,-14.816 -30.235,29.076c-0,43.892 -0,43.892 24.785,50.074" style="fill-rule:nonzero;"/><path d="M156.791,1197.58c18.568,24.81 18.568,24.81 49.353,11.608c30.795,-13.202 30.795,-13.202 20.029,-27.755c-10.776,-14.553 -10.776,-14.553 -44.503,-24.114c-33.728,-9.572 -33.728,-9.572 -38.587,2.934c-4.86,12.517 -4.86,12.517 13.708,37.327" style="fill-rule:nonzero;"/><path d="M638.11,1192.14c4.788,9.288 4.788,9.288 43.209,31.174c38.41,21.875 38.41,21.875 47.736,26.767c9.325,4.891 9.325,4.891 15.304,3.57c5.968,-1.331 5.968,-1.331 16.972,-31.255c11.015,-29.924 11.015,-29.924 -17.573,-65.424c-28.578,-35.501 -28.578,-35.501 -79.557,-44.619c-50.99,-9.117 -50.99,-9.117 -40.928,30.68c10.05,39.808 10.05,39.808 14.837,49.107" style="fill-rule:nonzero;"/><path d="M411.491,1224.82c7.45,26.817 7.45,26.817 24.039,28.3c16.579,1.492 16.579,1.492 35.24,-30.802c18.651,-32.293 18.651,-32.293 -17.832,-43.831c-36.484,-11.548 -36.484,-11.548 -42.69,3.984c-6.207,15.541 -6.207,15.541 1.243,42.349" style="fill-rule:nonzero;"/><path d="M944.608,1225.11c8.745,50.589 8.745,50.589 16.185,55.763c7.44,5.163 7.44,5.163 35.965,9.52c28.536,4.357 28.536,4.357 33.126,4.226c4.58,-0.131 4.58,-0.131 4.58,-55.944c0,-55.813 0,-55.813 -42.151,-66.171c-42.162,-10.368 -42.162,-10.368 -49.311,-4.175c-7.15,6.192 -7.15,6.192 1.606,56.781" style="fill-rule:nonzero;"/><path d="M87.544,1242.4c11.761,28.703 11.761,28.703 36.867,20.947c25.106,-7.766 25.106,-7.766 36.763,-23.045c11.668,-15.28 11.668,-15.28 -6.901,-40.09c-18.568,-24.82 -18.568,-24.82 -48.534,-5.668c-29.965,19.152 -29.965,19.152 -18.195,47.856" style="fill-rule:nonzero;"/><path d="M1.646,1230.21c24.796,-24.749 24.796,-24.749 0,-30.932c-24.795,-6.182 -24.795,-6.182 -24.795,24.75c-0,30.932 -0,30.932 24.795,6.182" style="fill-rule:nonzero;"/><path d="M909.213,1278.18c39.218,-4.034 39.218,-4.034 30.463,-54.613c-8.756,-50.589 -8.756,-50.589 -25.106,-55.642c-16.351,-5.042 -16.351,-5.042 -46.172,1.987c-29.821,7.02 -29.821,7.02 -14.112,59.656c15.708,52.636 15.708,52.636 54.927,48.612" style="fill-rule:nonzero;"/><path d="M341.394,1221.92c3.171,29.571 3.171,29.571 21.335,44.396c18.154,14.836 18.154,14.836 35.686,0.656c17.521,-14.17 17.521,-14.17 10.071,-40.987c-7.44,-26.818 -7.44,-26.818 -38.856,-30.227c-31.417,-3.398 -31.417,-3.398 -28.236,26.162" style="fill-rule:nonzero;"/><path d="M258.47,1221.56c5.886,20.655 5.886,20.655 44.058,24.669c38.162,4.004 38.162,4.004 34.991,-25.557c-3.181,-29.57 -3.181,-29.57 -19.687,-41.622c-16.506,-12.052 -16.506,-12.052 -40.877,4.891c-24.36,16.954 -24.36,16.954 -18.485,37.619" style="fill-rule:nonzero;"/><path d="M478.23,1271.92c22.744,16.086 22.744,16.086 35.945,14.846c13.201,-1.241 13.201,-1.241 20.247,-62.591c7.056,-61.35 7.056,-61.35 -17.284,-47.139c-24.35,14.22 -24.35,14.22 -43.001,46.504c-18.651,32.294 -18.651,32.294 4.093,48.38" style="fill-rule:nonzero;"/><path d="M581.494,1233.13c46.244,-50.8 46.244,-50.8 34.38,-91.021c-11.874,-40.221 -11.874,-40.221 -19.79,-38.729c-7.917,1.493 -7.917,1.493 -29.427,28.905c-21.501,27.403 -21.501,27.403 -26.464,89.519c-4.953,62.127 -4.953,62.127 41.301,11.326" style="fill-rule:nonzero;"/><path d="M803.223,1275.82c44.213,18.224 44.213,18.224 53.487,13.232c9.274,-4.992 9.274,-4.992 -7.232,-56.902c-16.496,-51.92 -16.496,-51.92 -43.861,-44.276c-27.355,7.635 -27.355,7.635 -36.981,38.678c-9.626,31.043 -9.626,31.043 34.587,49.268" style="fill-rule:nonzero;"/><path d="M33.446,1295.05c54.181,-4.357 54.181,-4.357 57.901,-13.646c3.72,-9.288 3.72,-9.288 -8.051,-37.992c-11.76,-28.703 -11.76,-28.703 -22.35,-37.346c-10.579,-8.644 -10.579,-8.644 -21.335,-3.863c-10.755,4.78 -10.755,4.78 -35.54,29.53c-24.795,24.75 -24.795,24.75 -24.795,46.212c-0,21.462 -0,21.462 54.17,17.105" style="fill-rule:nonzero;"/><path d="M584.033,1279.84c43.229,-9.642 43.229,-9.642 48.71,-42.43c5.481,-32.788 5.481,-32.788 0.694,-42.086c-4.787,-9.299 -4.787,-9.299 -48.71,42.429c-43.923,51.729 -43.923,51.729 -0.694,42.087" style="fill-rule:nonzero;"/><path d="M194.155,1283.83c39.768,27.352 39.768,27.352 49.83,13.575c10.061,-13.767 10.061,-13.767 13.345,-33.585c3.295,-19.818 3.295,-19.818 -2.58,-40.473c-5.885,-20.665 -5.885,-20.665 -10.672,-22.248c-4.777,-1.584 -4.777,-1.584 -35.572,11.618c-30.795,13.202 -30.795,13.202 -42.451,28.492c-11.668,15.279 -11.668,15.279 28.1,42.621" style="fill-rule:nonzero;"/><path d="M633.158,1275.64c3.036,4.983 3.036,4.983 43.892,-10.912c40.856,-15.895 40.856,-15.895 2.445,-37.77c-38.421,-21.886 -38.421,-21.886 -43.892,10.912c-5.481,32.788 -5.481,32.788 -2.445,37.77" style="fill-rule:nonzero;"/><path d="M660.72,1306.5c20.92,23.227 20.92,23.227 49.445,-11.729c28.536,-34.967 28.536,-34.967 19.211,-39.858c-9.326,-4.892 -9.326,-4.892 -49.456,11.739c-40.121,16.631 -40.121,16.631 -19.2,39.848" style="fill-rule:nonzero;"/><path d="M304.082,1296.68c44.825,11.457 44.825,11.457 58.274,2.904c13.46,-8.562 13.46,-8.562 14.796,-12.435c1.347,-3.883 1.347,-3.883 -16.817,-18.709c-18.153,-14.835 -18.153,-14.835 -56.325,-18.849c-38.162,-4.004 -38.162,-4.004 -41.457,15.814c-3.295,19.808 -3.295,19.808 41.529,31.275" style="fill-rule:nonzero;"/><path d="M558.657,1319.35c17.626,26.525 17.626,26.525 45.302,-5.557c27.675,-32.092 27.675,-32.092 25.375,-36.338c-2.31,-4.256 -2.31,-4.256 -45.301,5.557c-43.001,9.803 -43.001,9.803 -25.376,36.338" style="fill-rule:nonzero;"/><path d="M133.695,1333.87c39.457,37.014 39.457,37.014 44.535,35.087c5.066,-1.926 5.066,-1.926 27.095,-16.933c22.019,-15.007 22.019,-15.007 23.625,-26.202c1.606,-11.205 1.606,-11.205 -38.162,-38.557c-39.758,-27.342 -39.758,-27.342 -64.864,-19.586c-25.106,7.766 -25.106,7.766 -28.391,18.477c-3.295,10.71 -3.295,10.71 36.162,47.714" style="fill-rule:nonzero;"/><path d="M599.907,1365.21c18.05,15.783 18.05,15.783 34.515,24.931c16.464,9.147 16.464,9.147 22.039,5.91c5.575,-3.227 5.575,-3.227 13.978,-32.334c8.413,-29.097 8.413,-29.097 -13.149,-53.897c-21.573,-24.79 -21.573,-24.79 -48.503,7.403c-26.93,32.193 -26.93,32.193 -8.88,47.987" style="fill-rule:nonzero;"/><path d="M389.763,1306.38c8.879,14.735 8.879,14.735 48.192,19.677c39.301,4.952 39.301,4.952 49.311,-15.209c10.019,-20.161 10.019,-20.161 -12.735,-36.247c-22.744,-16.087 -22.744,-16.087 -39.333,-17.569c-16.589,-1.493 -16.589,-1.493 -34.11,12.687c-17.522,14.18 -17.522,14.18 -18.869,18.053c-1.347,3.883 -1.347,3.883 7.544,18.608" style="fill-rule:nonzero;"/><path d="M764.802,1301.93c3.378,37.468 3.378,37.468 20.371,63.993c16.983,26.534 16.983,26.534 26.537,26.393c9.543,-0.131 9.543,-0.131 22.453,-46.887c12.921,-46.756 12.921,-46.756 -29.914,-63.861c-42.825,-17.095 -42.825,-17.095 -39.447,20.362" style="fill-rule:nonzero;"/><path d="M270.51,1363.16c37.199,25.476 37.199,25.476 56.492,-13.514c19.293,-39.001 19.293,-39.001 -25.531,-50.458c-44.835,-11.457 -44.835,-11.457 -54.896,2.32c-10.061,13.766 -10.061,13.766 -11.657,24.971c-1.606,11.205 -1.606,11.205 35.592,36.681" style="fill-rule:nonzero;"/><path d="M761.321,1299.91c-3.378,-37.457 -3.378,-37.457 -6.155,-39.696c-2.767,-2.239 -2.767,-2.239 -8.735,-0.918c-5.968,1.321 -5.968,1.321 -34.577,37.125c-28.619,35.793 -28.619,35.793 12.113,38.375c40.732,2.582 40.732,2.582 37.354,-34.886" style="fill-rule:nonzero;"/><path d="M410.185,1370.71c10.663,44.618 10.663,44.618 28.246,48.602c17.584,3.984 17.584,3.984 21.915,1.846c4.342,-2.138 4.342,-2.138 11.066,-43.66c6.725,-41.512 6.725,-41.512 -32.577,-46.464c-39.312,-4.942 -39.312,-4.942 -28.65,39.676" style="fill-rule:nonzero;"/><path d="M17.334,1351.5c37.965,4.206 37.965,4.206 45.332,0.484c7.367,-3.711 7.367,-3.711 16.641,-29.167c9.263,-25.456 9.263,-25.456 -45.343,-22.521c-54.606,2.945 -54.606,2.945 -54.606,24.972c0,22.027 0,22.027 37.976,26.232" style="fill-rule:nonzero;"/><path d="M707.44,1403.51c40.918,9.148 40.918,9.148 66.128,0.01c25.21,-9.137 25.21,-9.137 8.217,-35.662c-16.993,-26.525 -16.993,-26.525 -57.808,-28.28c-40.814,-1.744 -40.814,-1.744 -49.134,26.525c-8.331,28.27 -8.331,28.27 32.597,37.407" style="fill-rule:nonzero;"/><path d="M830.982,1396.74c5.43,4.508 5.43,4.508 40.908,11.891c35.478,7.382 35.478,7.382 63.413,-55.118c27.925,-62.489 27.925,-62.489 20.496,-67.663c-7.44,-5.174 -7.44,-5.174 -46.659,-1.14c-39.208,4.024 -39.208,4.024 -48.482,9.017c-9.274,4.982 -9.274,4.982 -22.195,51.738c-12.91,46.767 -12.91,46.767 -7.481,51.275" style="fill-rule:nonzero;"/><path d="M519.646,1378.91c50.047,-33.978 50.047,-33.978 33.665,-59.837c-16.372,-25.85 -16.372,-25.85 -20.806,-27.544c-4.425,-1.694 -4.425,-1.694 -17.626,-0.454c-13.19,1.241 -13.19,1.241 -23.21,21.402c-10.009,20.15 -10.009,20.15 -16.039,60.281c-6.031,40.13 -6.031,40.13 44.016,6.152" style="fill-rule:nonzero;"/><path d="M321.003,1411.54c8.9,21.22 8.9,21.22 52.285,11.8c43.384,-9.42 43.384,-9.42 32.722,-54.038c-10.663,-44.618 -10.663,-44.618 -19.553,-59.353c-8.88,-14.725 -8.88,-14.725 -22.329,-6.172c-13.45,8.552 -13.45,8.552 -32.743,47.543c-19.293,38.99 -19.293,38.99 -10.382,60.22" style="fill-rule:nonzero;"/><path d="M-0.115,1390.23c22.319,2.773 22.319,2.773 37.975,-14.695c15.646,-17.478 15.646,-17.478 -22.319,-21.674c-37.965,-4.205 -37.965,-4.205 -37.965,14.705c0,18.9 0,18.9 22.309,21.664" style="fill-rule:nonzero;"/><path d="M84.053,1396.97c10.703,45.455 10.703,45.455 22.205,62.661c11.511,17.196 11.511,17.196 38.027,-33.908c26.526,-51.103 26.526,-51.103 -12.507,-86.684c-39.032,-35.592 -39.032,-35.592 -48.731,-11.568c-9.698,24.033 -9.698,24.033 1.006,69.499" style="fill-rule:nonzero;"/><path d="M58.594,1418c33.717,24.266 33.717,24.266 23.024,-21.19c-10.704,-45.465 -10.704,-45.465 -18.071,-41.743c-7.367,3.711 -7.367,3.711 -23.024,21.179c-15.646,17.478 -15.646,17.478 18.071,41.754" style="fill-rule:nonzero;"/><path d="M934.744,1445.34c23.479,26.656 23.479,26.656 56.46,-58.143c32.981,-84.799 32.981,-84.799 4.445,-89.156c-28.525,-4.357 -28.525,-4.357 -56.46,58.143c-27.925,62.49 -27.925,62.49 -4.445,89.156" style="fill-rule:nonzero;"/><path d="M547.788,1407.38c64.532,-24.034 64.532,-24.034 45.001,-40.665c-19.532,-16.631 -19.532,-16.631 -71.755,17.892c-52.212,34.533 -52.212,34.533 -45,40.665c7.211,6.142 7.211,6.142 71.754,-17.892" style="fill-rule:nonzero;"/><path d="M998.737,1480.85c37.178,8.845 37.178,8.845 34.888,-84.87c-2.29,-93.724 -2.29,-93.724 -37.178,-8.845c-34.898,84.87 -34.898,84.87 2.29,93.715" style="fill-rule:nonzero;"/><path d="M243.86,1427.26c54.482,54.593 54.482,54.593 68.128,31.699c13.646,-22.894 13.646,-22.894 4.746,-44.124c-8.911,-21.22 -8.911,-21.22 -46.11,-46.696c-37.208,-25.486 -37.208,-25.486 -59.227,-10.478c-22.018,15.007 -22.018,15.007 32.463,69.599" style="fill-rule:nonzero;"/><path d="M491.638,1438.54c6.155,5.476 6.155,5.476 71.33,13.464c65.185,7.988 65.185,7.988 74.852,-20.362c9.668,-28.351 9.668,-28.351 -6.797,-37.498c-16.465,-9.148 -16.465,-9.148 -80.997,14.886c-64.543,24.034 -64.543,24.034 -58.388,29.51" style="fill-rule:nonzero;"/><path d="M47.238,1513.29c67.516,-29.329 67.516,-29.329 56.035,-48.401c-11.47,-19.061 -11.47,-19.061 -45.187,-43.337c-33.727,-24.276 -33.727,-24.276 -56.036,-27.049c-22.318,-2.764 -22.318,-2.764 -22.318,72.676c-0,75.429 -0,75.429 67.506,46.111" style="fill-rule:nonzero;"/><path d="M177.452,1504.09c37.147,3.741 37.147,3.741 73.91,-6.949c36.774,-10.681 36.774,-10.681 -15.128,-66.786c-51.891,-56.106 -51.891,-56.106 -56.968,-54.179c-5.067,1.926 -5.067,1.926 -31.624,54.895c-26.547,52.979 -26.547,52.979 -16.941,61.128c9.615,8.149 9.615,8.149 46.751,11.891" style="fill-rule:nonzero;"/><path d="M754.316,1478.63c2.684,61.612 2.684,61.612 22.133,63.468c19.438,1.866 19.438,1.866 34.514,-41.835c15.077,-43.69 15.077,-43.69 18.05,-68.228c2.974,-24.538 2.974,-24.538 -2.445,-29.056c-5.429,-4.508 -5.429,-4.508 -14.983,-4.377c-9.543,0.141 -9.543,0.141 -34.753,9.278c-25.199,9.128 -25.199,9.128 -22.516,70.75" style="fill-rule:nonzero;"/><path d="M636.65,1497.4c3.201,34.523 3.201,34.523 12.33,41.593c9.128,7.069 9.128,7.069 29.002,12.576c19.884,5.507 19.884,5.507 46.514,-2.42c26.639,-7.928 26.639,-7.928 23.956,-69.54c-2.694,-61.612 -2.694,-61.612 -43.613,-70.76c-40.928,-9.147 -40.928,-9.147 -46.503,-5.91c-5.564,3.228 -5.564,3.228 -15.231,31.588c-9.668,28.35 -9.668,28.35 -6.455,62.873" style="fill-rule:nonzero;"/><path d="M870.346,1489.17c39.799,32.929 39.799,32.929 61.548,9.481c21.76,-23.439 21.76,-23.439 -1.347,-50.085c-23.096,-26.656 -23.096,-26.656 -58.574,-34.028c-35.489,-7.383 -35.489,-7.383 -38.463,17.155c-2.973,24.538 -2.973,24.538 36.836,57.477" style="fill-rule:nonzero;"/><path d="M502.414,1462.34c5.15,14.836 5.15,14.836 28.806,53.675c23.655,38.849 23.655,38.849 63.237,27.684c39.592,-11.164 39.592,-11.164 36.38,-45.687c-3.202,-34.512 -3.202,-34.512 -68.387,-42.51c-65.175,-7.988 -65.175,-7.988 -60.036,6.838" style="fill-rule:nonzero;"/><path d="M851.54,1540.01c49.922,-5.113 49.922,-5.113 53.58,-10.015c3.657,-4.911 3.657,-4.911 -36.152,-37.841c-39.799,-32.929 -39.799,-32.929 -53.58,10.015c-13.781,42.954 -13.781,42.954 36.152,37.841" style="fill-rule:nonzero;"/><path d="M369.506,1494.82c62.656,14.392 62.656,14.392 73.101,-26.948c10.455,-41.341 10.455,-41.341 -7.129,-45.324c-17.584,-3.984 -17.584,-3.984 -60.968,5.436c-43.384,9.419 -43.384,9.419 -55.517,30.932c-12.144,21.512 -12.144,21.512 50.513,35.904" style="fill-rule:nonzero;"/><path d="M438.524,1546.12c2.394,36.025 2.394,36.025 33.303,-17.035c30.909,-53.069 30.909,-53.069 25.759,-67.905c-5.15,-14.826 -5.15,-14.826 -11.294,-20.302c-6.155,-5.477 -6.155,-5.477 -15.885,-9.854c-9.729,-4.367 -9.729,-4.367 -22.008,37.347c-12.268,41.724 -12.268,41.724 -9.875,77.749" style="fill-rule:nonzero;"/><path d="M363.672,1589.21c29.137,36.136 29.137,36.136 50.275,30.357c21.127,-5.768 21.127,-5.768 21.78,-19.575c0.663,-13.808 0.663,-13.808 -1.731,-49.843c-2.393,-36.025 -2.393,-36.025 -66.024,-49.106c-63.62,-13.071 -63.62,-13.071 -48.534,19.475c15.097,32.556 15.097,32.556 44.234,68.692" style="fill-rule:nonzero;"/><path d="M450.627,1616.64c10.216,1.623 10.216,1.623 32.017,-6.606c21.801,-8.22 21.801,-8.22 45.001,-29.652c23.2,-21.431 23.2,-21.431 -0.456,-60.271c-23.656,-38.839 -23.656,-38.839 -54.564,14.221c-30.909,53.07 -30.909,53.07 -31.562,66.877c-0.653,13.807 -0.653,13.807 9.564,15.431" style="fill-rule:nonzero;"/><path d="M915.626,1569.12c9.129,33.363 9.129,33.363 26.257,38.294c17.128,4.932 17.128,4.932 54.222,-33.988c37.105,-38.93 37.105,-38.93 37.105,-57.789c0,-18.86 0,-18.86 -37.571,-27.715c-37.561,-8.855 -37.561,-8.855 -59.704,14.583c-22.132,23.429 -22.132,23.429 -25.79,28.34c-3.658,4.912 -3.658,4.912 5.481,38.275" style="fill-rule:nonzero;"/><path d="M225.655,1544.25c6.455,32.526 6.455,32.526 14.858,45.415c8.393,12.899 8.393,12.899 48.534,-12.234c40.131,-25.123 40.131,-25.123 22.993,-56.226c-17.138,-31.114 -17.138,-31.114 -54.989,-20.292c-37.841,10.811 -37.841,10.811 -31.396,43.337" style="fill-rule:nonzero;"/><path d="M146.181,1556.91c5.554,51.285 5.554,51.285 21.594,56.862c16.029,5.578 16.029,5.578 38.027,-15.017c21.998,-20.595 21.998,-20.595 15.553,-53.12c-6.456,-32.526 -6.456,-32.526 -43.592,-36.268c-37.146,-3.741 -37.146,-3.741 -31.582,47.543" style="fill-rule:nonzero;"/><path d="M842.649,1630.78c27.386,24.317 27.386,24.317 51.985,-0.716c24.598,-25.032 24.598,-25.032 15.47,-58.405c-9.129,-33.362 -9.129,-33.362 -60.357,-27.513c-51.217,5.86 -51.217,5.86 -42.845,34.089c8.372,28.229 8.372,28.229 35.747,52.545" style="fill-rule:nonzero;"/><path d="M27.426,1660.73c46.089,31.517 46.089,31.517 82.375,-9.601c36.276,-41.119 36.276,-41.119 31.023,-92.817c-5.243,-51.708 -5.243,-51.708 -14.89,-57.981c-9.646,-6.283 -9.646,-6.283 -77.132,21.169c-67.475,27.453 -67.475,27.453 -67.475,67.583c0,40.12 0,40.12 46.099,71.647" style="fill-rule:nonzero;"/><path d="M253.756,1637.55c2.383,30.276 2.383,30.276 22.35,44.679c19.956,14.402 19.956,14.402 66.615,-18.901c46.658,-33.312 46.658,-33.312 17.78,-69.811c-28.867,-36.5 -28.867,-36.5 -68.998,-11.377c-40.141,25.133 -40.141,25.133 -37.747,55.41" style="fill-rule:nonzero;"/><path d="M968.73,1624.72c7.668,8.996 7.668,8.996 37.105,-0.353c29.437,-9.349 29.437,-9.349 29.437,-47.926c0,-38.577 0,-38.577 -37.105,0.343c-37.105,38.93 -37.105,38.93 -29.437,47.936" style="fill-rule:nonzero;"/><path d="M212.744,1643.96c26.588,21.402 26.588,21.402 32.784,22.571c6.207,1.17 6.207,1.17 3.824,-29.106c-2.394,-30.277 -2.394,-30.277 -10.797,-43.176c-8.393,-12.889 -8.393,-12.889 -30.401,7.705c-21.998,20.595 -21.998,20.595 4.59,42.006" style="fill-rule:nonzero;"/><path d="M525.386,1613.18c15.843,10.862 15.843,10.862 54.544,23.883c38.701,13.02 38.701,13.02 56.067,-36.379c17.376,-49.398 17.376,-49.398 8.248,-56.468c-9.129,-7.07 -9.129,-7.07 -48.711,4.084c-39.591,11.165 -39.591,11.165 -62.791,32.597c-23.189,21.431 -23.189,21.431 -7.357,32.283" style="fill-rule:nonzero;"/><path d="M709.088,1601.22c7.512,37.982 7.512,37.982 21.272,52.223c13.76,14.24 13.76,14.24 22.962,13.03c9.201,-1.22 9.201,-1.22 33.178,-30.065c23.976,-28.844 23.976,-28.844 14.309,-56.337c-9.678,-27.483 -9.678,-27.483 -27.821,-30.085c-18.143,-2.602 -18.143,-2.602 -44.783,5.325c-26.64,7.927 -26.64,7.927 -19.117,45.909" style="fill-rule:nonzero;"/><path d="M982.718,1658.22c5.948,21.795 5.948,21.795 29.427,23.842c23.48,2.047 23.48,2.047 23.48,-31.154c-0,-33.191 -0,-33.191 -29.438,-23.842c-29.427,9.359 -29.427,9.359 -23.469,31.154" style="fill-rule:nonzero;"/><path d="M626.91,1677.06c4.351,25.223 4.351,25.223 44.762,-5.91c40.41,-31.134 40.41,-31.134 32.888,-69.116c-7.512,-37.982 -7.512,-37.982 -27.386,-43.489c-19.884,-5.506 -19.884,-5.506 -37.25,43.892c-17.377,49.399 -17.377,49.399 -13.014,74.623" style="fill-rule:nonzero;"/><path d="M210.786,1674.3c26.07,-8.411 26.07,-8.411 -0.508,-29.812c-26.588,-21.412 -26.588,-21.412 -42.928,-26.576c-16.34,-5.153 -16.34,-5.153 0.508,29.823c16.848,34.967 16.848,34.967 42.928,26.565" style="fill-rule:nonzero;"/><path d="M804.487,1689.33c38.09,21.119 38.09,21.119 51.104,5.295c13.014,-15.825 13.014,-15.825 13.273,-25.648c0.259,-9.813 0.259,-9.813 -27.126,-34.129c-27.376,-24.316 -27.376,-24.316 -51.353,4.528c-23.977,28.845 -23.977,28.845 14.102,49.954" style="fill-rule:nonzero;"/><path d="M81.638,1707.81c5.834,10.61 5.834,10.61 37.458,1.644c31.623,-8.966 31.623,-8.966 47.301,-16.762c15.677,-7.786 15.677,-7.786 -1.482,-42.339c-17.159,-34.553 -17.159,-34.553 -53.135,6.142c-35.965,40.695 -35.965,40.695 -30.142,51.315" style="fill-rule:nonzero;"/><path d="M568.273,1670.72c26.215,41.956 26.215,41.956 42.908,38.89c16.692,-3.076 16.692,-3.076 12.485,-28.936c-4.196,-25.859 -4.196,-25.859 -42.897,-38.889c-38.701,-13.021 -38.701,-13.021 -12.496,28.935" style="fill-rule:nonzero;"/><path d="M914.963,1694.83c41.24,16.5 41.24,16.5 55.611,0.878c14.372,-15.613 14.372,-15.613 8.424,-37.417c-5.958,-21.795 -5.958,-21.795 -13.625,-30.801c-7.668,-8.997 -7.668,-8.997 -24.796,-13.929c-17.127,-4.931 -17.127,-4.931 -41.726,20.101c-24.599,25.032 -24.599,25.032 -24.858,34.855c-0.259,9.813 -0.259,9.813 40.97,26.313" style="fill-rule:nonzero;"/><path d="M495.109,1680.15c32.184,57.699 32.184,57.699 63.849,44.598c31.665,-13.101 31.665,-13.101 5.46,-55.067c-26.214,-41.955 -26.214,-41.955 -42.057,-52.807c-15.833,-10.852 -15.833,-10.852 -37.644,-2.633c-21.801,8.22 -21.801,8.22 10.392,65.909" style="fill-rule:nonzero;"/><path d="M667.6,1731.02c26.847,11.608 26.847,11.608 47.073,-12.758c20.215,-24.367 20.215,-24.367 23.065,-35.178c2.86,-10.802 2.86,-10.802 -10.901,-25.042c-13.76,-14.241 -13.76,-14.241 -54.326,17.528c-40.566,31.769 -40.566,31.769 -36.162,37.8c4.404,6.032 4.404,6.032 31.251,17.65" style="fill-rule:nonzero;"/><path d="M770.636,1724.5c30.577,30.095 30.577,30.095 46.296,24.629c15.729,-5.467 15.729,-5.467 19.563,-21.009c3.833,-15.541 3.833,-15.541 -34.246,-36.65c-38.089,-21.119 -38.089,-21.119 -47.29,-19.899c-9.191,1.21 -9.191,1.21 -12.051,12.022c-2.849,10.802 -2.849,10.802 27.728,40.907" style="fill-rule:nonzero;"/><path d="M215.594,1730.86c59.258,29.318 59.258,29.318 64.263,20.917c5.015,-8.391 5.015,-8.391 8.662,-29.944c3.647,-21.542 3.647,-21.542 -16.309,-35.944c-19.957,-14.413 -19.957,-14.413 -26.163,-15.572c-6.207,-1.17 -6.207,-1.17 -32.277,7.241c-26.08,8.401 -26.08,8.401 -41.757,16.197c-15.667,7.786 -15.667,7.786 43.581,37.105" style="fill-rule:nonzero;"/><path d="M439.965,1769.67c9.035,3.056 9.035,3.056 23.003,5.728c13.967,2.663 13.967,2.663 36.98,-15.209c23.003,-17.881 23.003,-17.881 -8.766,-76.791c-31.779,-58.909 -31.779,-58.909 -41.995,-60.533c-10.217,-1.613 -10.217,-1.613 -31.624,4.519c-21.397,6.142 -21.397,6.142 -4.02,72.686c17.376,66.544 17.376,66.544 26.422,69.6" style="fill-rule:nonzero;"/><path d="M963.518,1753.55c4.207,38.375 4.207,38.375 37.851,35.108c33.655,-3.258 33.655,-3.258 33.655,-51.951c-0,-48.682 -0,-48.682 -23.48,-50.73c-23.479,-2.037 -23.479,-2.037 -37.851,13.575c-14.371,15.623 -14.371,15.623 -10.175,53.998" style="fill-rule:nonzero;"/><path d="M91.472,1730.09c1.098,8.432 1.098,8.432 77.411,33.101c76.304,24.669 76.304,24.669 86.976,17.73c10.683,-6.949 10.683,-6.949 13.481,-12.758c2.787,-5.809 2.787,-5.809 -56.461,-35.128c-59.258,-29.318 -59.258,-29.318 -90.882,-20.352c-31.624,8.976 -31.624,8.976 -30.525,17.407" style="fill-rule:nonzero;"/><path d="M710.383,1767.36c12.859,21.976 12.859,21.976 35.685,16.681c22.827,-5.305 22.827,-5.305 37.934,-16.247c15.108,-10.933 15.108,-10.933 -15.469,-41.038c-30.578,-30.095 -30.578,-30.095 -50.793,-5.729c-20.226,24.367 -20.226,24.367 -7.357,46.333" style="fill-rule:nonzero;"/><path d="M870.978,1784.89c32.567,38.809 32.567,38.809 50.088,35.581c17.522,-3.217 17.522,-3.217 29.728,-15.299c12.196,-12.083 12.196,-12.083 7.989,-50.448c-4.197,-38.375 -4.197,-38.375 -45.436,-54.875c-41.239,-16.5 -41.239,-16.5 -54.254,-0.676c-13.014,15.824 -13.014,15.824 -16.848,31.366c-3.844,15.542 -3.844,15.542 28.733,54.351" style="fill-rule:nonzero;"/><path d="M343.643,1763.1c52.803,18.628 52.803,18.628 67.682,11.689c14.879,-6.939 14.879,-6.939 -2.766,-73.12c-17.646,-66.181 -17.646,-66.181 -64.035,-33.242c-46.389,32.95 -46.389,32.95 -50.037,54.492c-3.647,21.553 -3.647,21.553 49.156,40.181" style="fill-rule:nonzero;"/><path d="M1.667,1803.52c22.319,-4.236 22.319,-4.236 50.845,-27.867c28.536,-23.64 28.536,-23.64 30.712,-30.68c2.186,-7.029 2.186,-7.029 1.077,-15.471c-1.098,-8.431 -1.098,-8.431 -6.921,-19.041c-5.834,-10.62 -5.834,-10.62 -51.933,-42.137c-46.089,-31.528 -46.089,-31.528 -46.089,53.947c0,85.474 0,85.474 22.309,81.249" style="fill-rule:nonzero;"/><path d="M603.461,1802.61c17.428,-21.089 17.428,-21.089 24.982,-50.871c7.554,-29.783 7.554,-29.783 3.005,-35.179c-4.559,-5.395 -4.559,-5.395 -21.096,-2.955c-16.538,2.441 -16.538,2.441 -48.617,16.763c-32.08,14.321 -32.08,14.321 -3.896,53.826c28.194,39.505 28.194,39.505 45.622,18.416" style="fill-rule:nonzero;"/><path d="M657.839,1799.94c32.411,16.883 32.411,16.883 41.758,17.307c9.356,0.423 9.356,0.423 14.868,-13.081c5.513,-13.504 5.513,-13.504 -7.356,-35.481c-12.869,-21.976 -12.869,-21.976 -39.716,-33.584c-26.848,-11.609 -26.848,-11.609 -34.401,18.174c-7.554,29.782 -7.554,29.782 24.847,46.665" style="fill-rule:nonzero;"/><path d="M94.632,1773.76c8.341,18.689 8.341,18.689 37.737,46.797c29.386,28.098 29.386,28.098 51.145,33.151c21.759,5.053 21.759,5.053 40.752,-29.157c19.004,-34.21 19.004,-34.21 -57.3,-58.879c-76.313,-24.659 -76.313,-24.659 -78.489,-17.63c-2.186,7.04 -2.186,7.04 6.155,25.718" style="fill-rule:nonzero;"/><path d="M312.34,1823.4c38.743,46.857 38.743,46.857 53.228,36.842c14.496,-10.005 14.496,-10.005 21.874,-42.439c7.387,-32.425 7.387,-32.425 -45.426,-51.053c-52.803,-18.628 -52.803,-18.628 -57.818,-10.227c-5.005,8.391 -5.005,8.391 -7.802,14.201c-2.787,5.809 -2.787,5.809 35.944,52.676" style="fill-rule:nonzero;"/><path d="M588.271,1833.24c0.601,6.132 0.601,6.132 49.829,-4.195c49.228,-10.328 49.228,-10.328 16.827,-27.221c-32.4,-16.883 -32.4,-16.883 -49.839,4.206c-17.428,21.089 -17.428,21.089 -16.817,27.21" style="fill-rule:nonzero;"/><path d="M784.935,1800.34c11.584,19.586 11.584,19.586 62.843,23.075c51.27,3.48 51.27,3.48 19.252,-36.005c-32.017,-39.475 -32.017,-39.475 -47.736,-34.008c-15.729,5.466 -15.729,5.466 -30.836,16.399c-15.107,10.942 -15.107,10.942 -3.523,30.539" style="fill-rule:nonzero;"/><path d="M483.183,1805.38c1.927,21.21 1.927,21.21 13.574,38.224c11.646,17.015 11.646,17.015 45.187,14.523c33.551,-2.481 33.551,-2.481 37.882,-9.167c4.331,-6.687 4.331,-6.687 4.072,-14.11c-0.269,-7.423 -0.269,-7.423 -28.867,-45.707c-28.598,-38.285 -28.598,-38.285 -51.187,-21.634c-22.588,16.662 -22.588,16.662 -20.661,37.871" style="fill-rule:nonzero;"/><path d="M400.238,1851.19c15.822,0.544 15.822,0.544 31.303,-36.308c15.48,-36.863 15.48,-36.863 6.434,-39.918c-9.045,-3.046 -9.045,-3.046 -23.914,3.893c-14.88,6.938 -14.88,6.938 -22.257,39.363c-7.388,32.425 -7.388,32.425 8.434,32.97" style="fill-rule:nonzero;"/><path d="M425.303,1852.25c6.051,-0.747 6.051,-0.747 30.546,-13.182c24.495,-12.436 24.495,-12.436 22.568,-33.645c-1.927,-21.21 -1.927,-21.21 -15.895,-23.883c-13.967,-2.672 -13.967,-2.672 -28.619,34.392c-14.641,37.054 -14.641,37.054 -8.6,36.318" style="fill-rule:nonzero;"/><path d="M714.693,1836.3c2.249,16.107 2.249,16.107 3.461,19.001c1.202,2.895 1.202,2.895 11.74,4.196c10.527,1.301 10.527,1.301 31.655,-3.58c21.117,-4.882 21.117,-4.882 25.707,-14.423c4.59,-9.53 4.59,-9.53 4.808,-14.624c0.217,-5.103 0.217,-5.103 -11.367,-24.689c-11.584,-19.596 -11.584,-19.596 -34.401,-14.291c-22.826,5.295 -22.826,5.295 -28.339,18.799c-5.512,13.505 -5.512,13.505 -3.264,29.611" style="fill-rule:nonzero;"/><path d="M834.122,1852.64c37.727,20.221 37.727,20.221 50.938,-0.938c13.211,-21.169 13.211,-21.169 -37.51,-25.325c-50.709,-4.155 -50.709,-4.155 -50.927,0.948c-0.218,5.094 -0.218,5.094 37.499,25.315" style="fill-rule:nonzero;"/><path d="M36.99,1839.64c11.667,36.771 11.667,36.771 35.126,4.921c23.459,-31.85 23.459,-31.85 25.21,-41.723c1.741,-9.874 1.741,-9.874 -6.601,-28.562c-8.341,-18.679 -8.341,-18.679 -36.877,4.952c-28.525,23.64 -28.525,23.64 -16.858,60.412" style="fill-rule:nonzero;"/><path d="M822.703,1875.77c36.121,23.015 36.121,23.015 42.317,10.691c6.186,-12.325 6.186,-12.325 -31.53,-32.546c-37.727,-20.222 -37.727,-20.222 -42.317,-10.691c-4.59,9.531 -4.59,9.531 31.53,32.546" style="fill-rule:nonzero;"/><path d="M674.407,1859.63c37.758,-6.687 37.758,-6.687 35.51,-22.793c-2.249,-16.107 -2.249,-16.107 -11.605,-16.53c-9.347,-0.424 -9.347,-0.424 -58.927,11.205c-49.58,11.628 -49.58,11.628 -26.153,23.217c23.418,11.588 23.418,11.588 61.175,4.901" style="fill-rule:nonzero;"/><path d="M49.828,1884.78c0.87,4.771 0.87,4.771 17.946,10.449c17.066,5.678 17.066,5.678 20.713,1.18c3.648,-4.488 3.648,-4.488 5.523,-42.299c1.865,-37.8 1.865,-37.8 -21.594,-5.95c-23.458,31.85 -23.458,31.85 -22.588,36.62" style="fill-rule:nonzero;"/><path d="M126.991,1870.2c33.012,-19.576 33.012,-19.576 3.616,-47.674c-29.396,-28.109 -29.396,-28.109 -31.136,-18.235c-1.741,9.874 -1.741,9.874 -3.617,47.684c-1.865,37.801 -1.865,37.801 31.137,18.225" style="fill-rule:nonzero;"/><path d="M977.154,1870.89c33.758,48.793 33.758,48.793 45.85,56.095c12.082,7.302 12.082,7.302 12.082,-64.144c-0,-71.435 -0,-71.435 -33.644,-68.178c-33.645,3.268 -33.645,3.268 -45.84,15.34c-12.206,12.083 -12.206,12.083 21.552,60.887" style="fill-rule:nonzero;"/><path d="M13.966,1900.64c33.365,-11.649 33.365,-11.649 32.505,-16.419c-0.871,-4.771 -0.871,-4.771 -12.538,-41.543c-11.667,-36.771 -11.667,-36.771 -33.986,-32.545c-22.309,4.235 -22.309,4.235 -20.827,53.19c1.472,48.965 1.472,48.965 34.846,37.317" style="fill-rule:nonzero;"/><path d="M459.403,1875.97c26.526,22.652 26.526,22.652 36.142,4.568c9.626,-18.073 9.626,-18.073 -2.021,-35.087c-11.646,-17.014 -11.646,-17.014 -36.152,-4.579c-24.495,12.446 -24.495,12.446 2.031,35.098" style="fill-rule:nonzero;"/><path d="M215.863,1881.93c3.761,20.292 3.761,20.292 66.884,13.767c63.124,-6.536 63.124,-6.536 64.657,-14.584c1.523,-8.048 1.523,-8.048 -37.219,-54.915c-38.742,-46.857 -38.742,-46.857 -49.415,-39.919c-10.682,6.939 -10.682,6.939 -29.675,41.149c-19.004,34.21 -19.004,34.21 -15.232,54.502" style="fill-rule:nonzero;"/><path d="M792.696,1896.01c48.928,32.092 48.928,32.092 55.113,26.677c6.186,-5.426 6.186,-5.426 8.321,-13.969c2.134,-8.542 2.134,-8.542 -33.997,-31.557c-36.12,-23.005 -36.12,-23.005 -57.248,-18.124c-21.117,4.881 -21.117,4.881 27.811,36.973" style="fill-rule:nonzero;"/><path d="M436.369,1888.33c15.108,31.538 15.108,31.538 26.827,36.913c11.729,5.386 11.729,5.386 16.63,-9.823c4.911,-15.209 4.911,-15.209 -21.604,-37.861c-26.526,-22.652 -26.526,-22.652 -31.738,-21.704c-5.222,0.938 -5.222,0.938 9.885,32.475" style="fill-rule:nonzero;"/><path d="M647.871,1888.79c9.533,20.877 9.533,20.877 37.872,1.906c28.329,-18.98 28.329,-18.98 29.427,-24.679c1.098,-5.688 1.098,-5.688 -0.114,-8.593c-1.202,-2.894 -1.202,-2.894 -38.96,3.803c-37.758,6.686 -37.758,6.686 -28.225,27.563" style="fill-rule:nonzero;"/><path d="M376.469,1901.25c24.318,11.77 24.318,11.77 48.243,14.886c23.936,3.116 23.936,3.116 8,-28.623c-15.937,-31.739 -15.937,-31.739 -32.588,-32.485c-16.651,-0.746 -16.651,-0.746 -31.147,9.269c-14.485,10.015 -14.485,10.015 -15.656,17.599c-1.171,7.584 -1.171,7.584 23.148,19.354" style="fill-rule:nonzero;"/><path d="M584.448,1897.58c5.305,37.961 5.305,37.961 20.692,45.526c15.387,7.554 15.387,7.554 21.687,4.588c6.289,-2.965 6.289,-2.965 16.578,-19.737c10.3,-16.782 10.3,-16.782 0.767,-37.659c-9.533,-20.877 -9.533,-20.877 -33.302,-31.174c-23.77,-10.287 -23.77,-10.287 -27.749,-4.902c-3.979,5.386 -3.979,5.386 1.327,43.358" style="fill-rule:nonzero;"/><path d="M134.431,1907.22c43.353,7.05 43.353,7.05 60.097,6.859c16.734,-0.182 16.734,-0.182 17.936,-5.114c1.202,-4.921 1.202,-4.921 -2.569,-25.213c-3.762,-20.292 -3.762,-20.292 -25.521,-25.345c-21.759,-5.053 -21.759,-5.053 -54.761,14.523c-33.002,19.576 -33.002,19.576 -35.769,23.408c-2.756,3.833 -2.756,3.833 40.587,10.882" style="fill-rule:nonzero;"/><path d="M730.153,1916.61c12.289,42.45 12.289,42.45 29.241,59.716c16.951,17.256 16.951,17.256 34.12,4.135c17.18,-13.111 17.18,-13.111 31.324,-32.011c14.143,-18.89 14.143,-18.89 -34.784,-50.982c-48.928,-32.092 -48.928,-32.092 -59.455,-33.393c-10.538,-1.301 -10.538,-1.301 -11.626,4.397c-1.099,5.688 -1.099,5.688 11.18,48.138" style="fill-rule:nonzero;"/><path d="M484.541,1949.68c6.403,17.72 6.403,17.72 9.387,20.262c2.984,2.542 2.984,2.542 46.98,-15.522c44.006,-18.053 44.006,-18.053 38.701,-56.014c-5.306,-37.972 -5.306,-37.972 -38.857,-35.481c-33.551,2.481 -33.551,2.481 -43.166,20.554c-9.626,18.073 -9.626,18.073 -14.538,33.282c-4.911,15.209 -4.911,15.209 1.493,32.919" style="fill-rule:nonzero;"/><path d="M884.086,1929.78c25.572,13.141 25.572,13.141 73.92,2.198c48.337,-10.942 48.337,-10.942 14.578,-59.736c-33.758,-48.804 -33.758,-48.804 -51.829,-44.911c-18.07,3.893 -18.07,3.893 -31.841,25.728c-13.76,21.846 -13.76,21.846 -19.946,34.17c-6.186,12.324 -6.186,12.324 -8.32,20.867c-2.135,8.542 -2.135,8.542 23.438,21.684" style="fill-rule:nonzero;"/><path d="M687.66,1952.42c50.917,6.696 50.917,6.696 38.628,-35.753c-12.278,-42.45 -12.278,-42.45 -40.618,-23.469c-28.328,18.97 -28.328,18.97 -38.628,35.753c-10.289,16.772 -10.289,16.772 40.618,23.469" style="fill-rule:nonzero;"/><path d="M133.063,1931.88c41.934,-16.328 41.934,-16.328 -2.3,-22.722c-44.244,-6.384 -44.244,-6.384 -41.934,16.338c2.311,22.713 2.311,22.713 44.234,6.384" style="fill-rule:nonzero;"/><path d="M255.123,1977.15c37.779,48.834 37.779,48.834 53.777,35.441c15.999,-13.384 15.999,-13.384 25.739,-65.687c9.74,-52.314 9.74,-52.314 -53.632,-43.781c-63.362,8.522 -63.362,8.522 -63.517,16.853c-0.156,8.33 -0.156,8.33 37.633,57.174" style="fill-rule:nonzero;"/><path d="M11.107,1953.83c25.251,37.275 25.251,37.275 51.051,32.818c25.801,-4.468 25.801,-4.468 26.018,-20.897c0.218,-16.44 0.218,-16.44 -2.973,-38.497c-3.192,-22.057 -3.192,-22.057 -19.377,-28.4c-16.184,-6.334 -16.184,-6.334 -48.078,5.678c-31.893,12.011 -31.893,12.011 -6.641,49.298" style="fill-rule:nonzero;"/><path d="M107.998,1993.57c15.211,10.872 15.211,10.872 59.331,-27.079c44.12,-37.942 44.12,-37.942 43.674,-43.812c-0.445,-5.869 -0.445,-5.869 -17.19,-5.688c-16.744,0.182 -16.744,0.182 -58.667,16.52c-41.934,16.329 -41.934,16.329 -42.151,32.758c-0.218,16.439 -0.218,16.439 15.003,27.301" style="fill-rule:nonzero;"/><path d="M403.119,1950.58c0.186,33.988 0.186,33.988 6.911,33.141c6.725,-0.847 6.725,-0.847 41.871,-7.776c35.137,-6.939 35.137,-6.939 28.733,-24.649c-6.393,-17.71 -6.393,-17.71 -18.112,-23.096c-11.719,-5.375 -11.719,-5.375 -35.654,-8.492c-23.936,-3.116 -23.936,-3.116 -23.749,30.872" style="fill-rule:nonzero;"/><path d="M348.585,1998.1c18.838,-1.221 18.838,-1.221 34.95,-7.484c16.113,-6.263 16.113,-6.263 15.926,-40.251c-0.186,-33.988 -0.186,-33.988 -24.858,-45.294c-24.671,-11.296 -24.671,-11.296 -34.763,41.472c-10.092,52.777 -10.092,52.777 8.745,51.557" style="fill-rule:nonzero;"/><path d="M926.092,1975.58c12.475,28.572 12.475,28.572 60.429,22.732c47.964,-5.829 47.964,-5.829 47.964,-32.213c-0,-26.383 -0,-26.383 -12.092,-33.675c-12.092,-7.302 -12.092,-7.302 -60.429,3.641c-48.337,10.943 -48.337,10.943 -35.872,39.515" style="fill-rule:nonzero;"/><path d="M4.403,2016.38c27.209,-21.442 27.209,-21.442 1.481,-60.18c-25.728,-38.729 -25.728,-38.729 -27.209,21.451c-1.482,60.18 -1.482,60.18 25.728,38.729" style="fill-rule:nonzero;"/><path d="M628.381,1979.32c3.761,24.85 3.761,24.85 72.573,27.402c68.812,2.561 68.812,2.561 70.407,-3.853c1.586,-6.424 1.586,-6.424 -15.366,-23.681c-16.952,-17.256 -16.952,-17.256 -67.869,-23.953c-50.917,-6.696 -50.917,-6.696 -57.206,-3.721c-6.3,2.965 -6.3,2.965 -2.539,27.806" style="fill-rule:nonzero;"/><path d="M866.129,1998.08c49.674,28.491 49.674,28.491 58.377,17.407c8.704,-11.084 8.704,-11.084 -3.761,-39.656c-12.475,-28.572 -12.475,-28.572 -38.048,-41.714c-25.572,-13.141 -25.572,-13.141 -31.758,-7.725c-6.186,5.416 -6.186,5.416 -20.33,24.316c-14.143,18.89 -14.143,18.89 35.52,47.372" style="fill-rule:nonzero;"/><path d="M135.84,2029.84c9.564,21.31 9.564,21.31 51.632,28.532c42.068,7.231 42.068,7.231 60.253,4.397c18.174,-2.834 18.174,-2.834 27.179,-6.294c9.004,-3.469 9.004,-3.469 12.092,-14.825c3.088,-11.356 3.088,-11.356 -34.701,-60.19c-37.789,-48.834 -37.789,-48.834 -81.899,-10.883c-44.12,37.952 -44.12,37.952 -34.556,59.263" style="fill-rule:nonzero;"/><path d="M507.181,2022.71c7.605,45.566 7.605,45.566 19.79,51.648c12.196,6.082 12.196,6.082 46.669,-4.891c34.474,-10.973 34.474,-10.973 43.353,-37.297c8.88,-26.323 8.88,-26.323 5.119,-51.173c-3.761,-24.851 -3.761,-24.851 -19.148,-32.415c-15.387,-7.554 -15.387,-7.554 -59.393,10.499c-43.996,18.053 -43.996,18.053 -36.39,63.629" style="fill-rule:nonzero;"/><path d="M426.909,2021.21c8.683,34.684 8.683,34.684 23.739,50.064c15.045,15.37 15.045,15.37 37.053,6.485c21.998,-8.875 21.998,-8.875 12.9,-55.722c-9.097,-46.837 -9.097,-46.837 -45.736,-41.179c-36.639,5.668 -36.639,5.668 -27.956,40.352" style="fill-rule:nonzero;"/><path d="M400.87,2027.44c31.52,27.574 31.52,27.574 22.837,-7.11c-8.683,-34.684 -8.683,-34.684 -15.407,-33.837c-6.715,0.847 -6.715,0.847 -22.827,7.111c-16.113,6.263 -16.113,6.263 15.397,33.836" style="fill-rule:nonzero;"/><path d="M776.739,2052.53c0.28,40.392 0.28,40.392 29.614,42.238c29.333,1.836 29.333,1.836 66.77,-21.129c37.447,-22.965 37.447,-22.965 38.815,-33.272c1.378,-10.317 1.378,-10.317 -48.296,-38.799c-49.663,-28.481 -49.663,-28.481 -66.843,-15.37c-17.18,13.111 -17.18,13.111 -18.765,19.525c-1.585,6.415 -1.585,6.415 -1.295,46.807" style="fill-rule:nonzero;"/><path d="M668.014,2089.2c52.907,27.896 52.907,27.896 68.926,27.755c16.009,-0.141 16.009,-0.141 25.075,-11.286c9.056,-11.134 9.056,-11.134 8.776,-51.526c-0.29,-40.383 -0.29,-40.383 -69.101,-42.944c-68.812,-2.552 -68.812,-2.552 -77.692,23.771c-8.88,26.323 -8.88,26.323 44.016,54.23" style="fill-rule:nonzero;"/><path d="M933.49,2062.62c16.143,12.032 16.143,12.032 58.036,-0.949c41.902,-12.99 41.902,-12.99 41.902,-39.262c0,-26.283 0,-26.283 -47.954,-20.444c-47.964,5.84 -47.964,5.84 -56.668,16.914c-8.703,11.084 -8.703,11.084 -10.081,21.401c-1.368,10.318 -1.368,10.318 14.765,22.34" style="fill-rule:nonzero;"/><path d="M87.824,2086.28c19.055,-1.422 19.055,-1.422 33.375,-18.739c14.33,-17.306 14.33,-17.306 6.497,-38.183c-7.823,-20.877 -7.823,-20.877 -23.034,-31.749c-15.221,-10.873 -15.221,-10.873 -42.027,-5.316c-26.806,5.558 -26.806,5.558 -10.331,50.478c16.475,44.921 16.475,44.921 35.52,43.509" style="fill-rule:nonzero;"/><path d="M318.226,2086.37c26.339,32.132 26.339,32.132 83.235,17.942c56.896,-14.18 56.896,-14.18 43.104,-30.509c-13.781,-16.328 -13.781,-16.328 -45.301,-43.902c-31.51,-27.584 -31.51,-27.584 -50.357,-26.363c-18.838,1.22 -18.838,1.22 -34.836,14.604c-15.999,13.383 -15.999,13.383 -19.086,24.739c-3.088,11.356 -3.088,11.356 23.241,43.489" style="fill-rule:nonzero;"/><path d="M21.872,2083.26c43.509,5.99 43.509,5.99 26.215,-37.892c-17.304,-43.882 -17.304,-43.882 -43.508,-23.529c-26.205,20.363 -26.205,20.363 -26.205,37.901c0,17.539 0,17.539 43.498,23.52" style="fill-rule:nonzero;"/></g></svg>